<?xml version="1.0" encoding="UTF-8"?>
<svg id="Layer_2" data-name="Layer 2" xmlns="http://www.w3.org/2000/svg" viewBox="0 0 644.1 719.35">
  <defs>
    <style>
      .cls-1 {
        fill: #fff;
      }

      .cls-2 {
        stroke-width: 6.71px;
      }

      .cls-2, .cls-3 {
        stroke: #fff;
        stroke-miterlimit: 10;
      }

      .cls-3 {
        stroke-width: 8.29px;
      }
    </style>
  </defs>
  <g id="Layer_1-2" data-name="Layer 1">
    <g>
      <path class="cls-2" d="M637.62,168.04C344.78,232.28,299.14,250.73,53.81,63.15l-22.22,438.41c129.93,79.49,417.56,11.47,606.04-333.52Z"/>
      <rect class="cls-3" x="21.94" y="39.66" width="21.85" height="675.23" transform="translate(19.71 -1.2) rotate(2.99)"/>
      <ellipse class="cls-3" cx="53.81" cy="33.65" rx="22.22" ry="29.5"/>
      <g>
        <path class="cls-1" d="M193.76,211.97c4.77,21.89,8.82,43.89,12.7,65.95,3.89-19.48,7.84-38.95,12.35-58.29,30.96,8.63,62.05,15.37,93.93,19.54.33,11.37.65,22.74.97,34.11-3.67.08-6.66,1-8.96,2.84-2.3,1.85-3.42,3.88-3.36,6.06,1.11,39.14,1.68,78.28,1.85,117.43.73,3.48,2.2,5.6,4.4,6.26,2.2.67,5.06.95,8.53.82-.07,16.77-.27,33.54-.5,50.31-26.93,9.28-54.13,16.12-82.15,21.17-.08-16.48-.13-32.96-.18-49.44,3.64-1.87,6.1-3.8,7.43-5.77,1.32-1.96,2.37-5.63,3.12-11-.16-30.05-.36-60.09-.69-90.14-9.67,53.07-18.66,106.27-29,159.21-9.17,1.19-13.81,1.69-23.15,2.49-14.85-55.63-24.93-112.22-34.42-168.97-.78,36.01-1.61,72.02-2.32,108.03.58,3.29,1.52,5.82,2.79,7.6,1.28,1.78,2.7,3.12,4.25,4.01,1.55.88,3.15,1.44,4.8,1.66,1.64.22,3.13.4,4.44.52-.24,16.17-.46,32.34-.57,48.52-25.7.86-50.95.13-76.54-2.33.82-14.8,1.68-29.59,2.54-44.39,4.7-.74,8.17-1.96,10.41-3.59,2.23-1.63,4.2-4.83,5.9-9.73,2.52-58.86,5.3-117.71,7.8-176.57-.54-5.2-2.07-9.55-4.55-13.17-2.48-3.63-5.4-6.58-8.75-8.9.73-15.23,1.46-30.46,2.09-45.7,27.97,11.38,56.14,21.99,84.82,31.47Z"/>
        <path class="cls-1" d="M348.97,393.15c1.93-1.62,3.51-2.95,4.78-4.01,1.26-1.05,2.34-2.06,3.23-3.02.89-.96,1.69-2.01,2.39-3.14.71-1.13,1.52-2.69,2.45-4.67,1.33-33.61,2.28-67.23,2.88-100.86.04-1.98-.19-3.13-.68-3.45-.49-.32-2.1-.39-4.81-.25-2.73,1.58-4.74,3.06-6.03,4.46-1.29,1.4-2.14,2.76-2.57,4.07-.43,1.31-.57,2.64-.43,3.97.14,1.34.21,2.73.21,4.2,0,9.18,0,13.75-.06,23.34-9.67,2.09-14.6,3-24.6,4.6-.39-26.01-.98-52.01-1.55-78.01,45.47,3.57,89.2.75,133.4-10.87-4.54,17.94-9.97,35.1-16.46,52.42-7.85,4.32-11.92,6.32-20.32,10.04,1.4-6.6,2.08-9.64,3.45-16.14.46-2.17.48-4.28.03-6.44-.45-2.16-1.86-3.5-4.25-3.98-2.57.6-4.36,1.07-5.34,1.48-.98.4-1.55,1.15-1.7,2.22-4.1,28.62-8.44,57.17-12.02,85.86.53.96.97,1.67,1.32,2.09.35.42.79.67,1.31.74.52.07,1.24-.05,2.13-.37.89-.32,2.15-.8,3.7-1.48-2.62,17.73-4.9,35.51-7.14,53.29-16.5,14.54-35.46,25.09-55.07,34.78.64-16.95,1.25-33.9,1.73-50.86Z"/>
      </g>
    </g>
  </g>
</svg>