<?xml version="1.0" encoding="UTF-8"?>
<svg id="Layer_2" data-name="Layer 2" xmlns="http://www.w3.org/2000/svg" xmlns:xlink="http://www.w3.org/1999/xlink" viewBox="0 0 414.07 695.13">
  <defs>
    <style>
      .cls-1, .cls-2, .cls-3 {
        fill: none;
      }

      .cls-4 {
        font-family: AkiraExpanded-SuperBold, 'AkiraExpanded SuperBold';
        font-size: 88.14px;
        font-weight: 700;
      }

      .cls-4, .cls-5 {
        fill: #fff;
      }

      .cls-6 {
        clip-path: url(#clippath-4);
      }

      .cls-7 {
        clip-path: url(#clippath-2);
      }

      .cls-8 {
        clip-path: url(#clippath-7);
      }

      .cls-9 {
        clip-path: url(#clippath-6);
      }

      .cls-10 {
        clip-path: url(#clippath-5);
      }

      .cls-11 {
        stroke: #fff;
        stroke-width: 4.52px;
      }

      .cls-11, .cls-2, .cls-3 {
        stroke-miterlimit: 10;
      }

      .cls-12 {
        clip-path: url(#clippath);
      }

      .cls-2 {
        stroke-width: 3.22px;
      }

      .cls-2, .cls-3 {
        stroke: #000;
      }

      .cls-3 {
        stroke-width: 3.31px;
      }
    </style>
    <clipPath id="clippath">
      <path class="cls-1" d="M341.33,622.45H23.93c-14.16,0-25.2-12.28-23.7-26.36L53.37,97.42c1.29-12.12,11.51-21.31,23.7-21.31h206.16c12.1,0,22.27,9.06,23.67,21.08l58.1,498.67c1.65,14.16-9.42,26.59-23.67,26.59Z"/>
    </clipPath>
    <clipPath id="clippath-2">
      <path class="cls-1" d="M-2.57,76.11h391.27c0,182.11,0,364.23,0,546.34-130.42-.53-260.85.53-391.27,0V76.11Z"/>
    </clipPath>
    <clipPath id="clippath-4">
      <path class="cls-1" d="M342.31,622.45H22.97c-13.65,0-24.28-11.83-22.84-25.4L53.46,96.64c1.24-11.68,11.1-20.53,22.84-20.53h207.71c11.66,0,21.46,8.73,22.81,20.31l58.3,500.4c1.59,13.65-9.08,25.63-22.81,25.63Z"/>
    </clipPath>
    <clipPath id="clippath-5">
      <rect class="cls-1" x="-50.85" y="12.59" width="467.11" height="688.69"/>
    </clipPath>
    <clipPath id="clippath-6">
      <path class="cls-1" d="M342.31,622.45H22.97c-13.65,0-24.28-11.83-22.84-25.4L53.46,96.64c1.24-11.68,11.1-20.53,22.84-20.53h207.71c11.66,0,21.46,8.73,22.81,20.31l58.3,500.4c1.59,13.65-9.08,25.63-22.81,25.63Z"/>
    </clipPath>
    <clipPath id="clippath-7">
      <rect class="cls-1" x="-50.85" y="12.59" width="467.11" height="688.69"/>
    </clipPath>
  </defs>
  <g id="Layer_1-2" data-name="Layer 1">
    <g>
      <g class="cls-12">
        <g class="cls-7">
          <g>
            <path d="M368.1,102.81c-123.13-10.09-246.27,16.3-369.4,2.19v-27.6c123.13.66,246.27-.58,369.4-.1v25.51Z"/>
            <path d="M368.1,135.22c-123.13-20.74-246.27,33.52-369.4,4.5v-27.58c123.13,17.37,246.27-15.11,369.4-2.69v25.77Z"/>
            <path d="M368.1,167.96c-123.13-29.78-246.27,48.12-369.4,6.46v-27.56c123.13,31.81,246.27-27.67,369.4-4.93v26.03Z"/>
            <path d="M368.1,201.03c-123.13-37.2-246.27,60.11-369.4,8.07v-27.54c123.13,43.98,246.27-38.26,369.4-6.82v26.29Z"/>
            <path d="M368.1,234.43c-123.13-43-246.27,69.48-369.4,9.33v-27.52c123.13,53.89,246.27-46.88,369.4-8.36v26.55Z"/>
            <path d="M368.1,268.15c-123.13-47.18-246.27,76.24-369.4,10.24v-27.51c123.13,61.54,246.27-53.54,369.4-9.54v26.81Z"/>
            <path d="M368.1,302.2c-123.13-49.75-246.27,80.38-369.4,10.79v-27.49c123.13,66.93,246.27-58.22,369.4-10.38v27.07Z"/>
            <path d="M368.1,336.58c-123.13-50.69-246.27,81.91-369.4,11v-27.47c123.13,70.05,246.27-60.94,369.4-10.86v27.33Z"/>
            <path d="M368.1,371.29c-123.13-50.02-246.27,80.82-369.4,10.85v-27.45c123.13,70.91,246.27-61.68,369.4-11v27.59Z"/>
            <path d="M368.1,406.32c-123.13-47.73-246.27,77.12-369.4,10.35v-27.43c123.13,69.5,246.27-60.46,369.4-10.78v27.85Z"/>
            <path d="M368.1,441.68c-123.13-43.82-246.27,70.81-369.4,9.51v-27.41c123.13,65.83,246.27-57.26,369.4-10.21v28.11Z"/>
            <path d="M368.1,477.37c-123.13-38.29-246.27,61.87-369.4,8.31v-27.39c123.13,59.89,246.27-52.1,369.4-9.29v28.37Z"/>
            <path d="M368.1,513.38c-123.13-31.15-246.27,50.33-369.4,6.76v-27.37c123.13,51.7,246.27-44.97,369.4-8.02v28.63Z"/>
            <path d="M368.1,549.73c-123.13-22.38-246.27,36.17-369.4,4.86v-27.36c123.13,41.23,246.27-35.87,369.4-6.39v28.89Z"/>
            <path d="M368.1,586.39c-123.13-12-246.27,19.39-369.4,2.6v-27.34c123.13,28.51,246.27-24.8,369.4-4.42v29.15Z"/>
            <path d="M368.1,623.39c-123.13,0-246.27,0-369.4,0v-27.32c123.13,13.52,246.27-11.76,369.4-2.1v29.41Z"/>
          </g>
        </g>
      </g>
      <g class="cls-6">
        <g class="cls-10">
          <g>
            <path class="cls-5" d="M-48.34,282.95C104.38,172.32,263.52,98.05,416.3,60.13c.99-15.85,1.98-31.7,2.98-47.54C265.29,51.03,104.74,126.44-49.24,238.81c.3,14.71.6,29.42.9,44.13Z"/>
            <path d="M-49.89,286.06l-.98-48.05.68-.5C25.48,182.29,104.38,134.85,184.32,96.52,262.09,59.23,341.01,30.47,418.88,11.03l2.14-.53-3.19,50.92-1.15.28c-77.03,19.12-155.1,47.4-232.04,84.04C105.58,183.39,27.51,229.99-47.39,284.25l-2.49,1.81ZM-47.61,239.62l.82,40.22c74.3-53.6,151.68-99.69,230.06-137.02,76.75-36.55,154.63-64.8,231.5-83.97l2.76-44.16c-76.97,19.38-154.95,47.88-231.81,84.74C106.19,137.56,27.69,184.73-47.61,239.62Z"/>
          </g>
          <g>
            <path class="cls-5" d="M-48.34,338.3C104.38,227.68,263.52,153.41,416.3,115.49c.99-15.85,1.98-31.7,2.98-47.54C265.29,106.39,104.74,181.79-49.24,294.17c.3,14.71.6,29.42.9,44.13Z"/>
            <path d="M-49.89,341.41l-.98-48.05.68-.5c75.67-55.22,154.57-102.66,234.51-140.99,77.77-37.29,156.69-66.06,234.56-85.5l2.14-.53-3.19,50.92-1.15.28c-77.03,19.12-155.1,47.4-232.04,84.04-79.07,37.66-157.14,84.26-232.04,138.52l-2.49,1.81ZM-47.61,294.98l.82,40.22c74.3-53.6,151.68-99.69,230.06-137.02,76.75-36.55,154.63-64.8,231.5-83.97l2.76-44.16c-76.97,19.38-154.95,47.88-231.81,84.74C106.19,192.92,27.69,240.08-47.61,294.98Z"/>
          </g>
          <g>
            <path class="cls-5" d="M-48.34,396.15c152.72-110.62,311.86-184.9,464.64-222.82.99-15.85,1.98-31.7,2.98-47.54-153.98,38.44-314.53,113.85-468.51,226.22.3,14.71.6,29.42.9,44.13Z"/>
            <path d="M-49.89,399.26l-.98-48.05.68-.5c75.67-55.22,154.57-102.66,234.51-140.99,77.77-37.29,156.69-66.06,234.56-85.5l2.14-.53-3.19,50.92-1.15.28c-77.04,19.12-155.1,47.4-232.04,84.04-79.07,37.66-157.14,84.26-232.04,138.52l-2.49,1.81ZM-47.61,352.82l.82,40.22c74.3-53.6,151.68-99.69,230.06-137.02,76.75-36.55,154.63-64.8,231.5-83.97l2.76-44.16c-76.97,19.38-154.95,47.88-231.81,84.74-79.53,38.13-158.02,85.3-233.33,140.19Z"/>
          </g>
          <g>
            <path class="cls-5" d="M-48.34,581.59c152.72-110.62,311.86-184.9,464.64-222.82.99-15.85,1.98-31.7,2.98-47.54-153.98,38.44-314.53,113.85-468.51,226.22.3,14.71.6,29.42.9,44.13Z"/>
            <path d="M-49.89,584.7l-.98-48.05.68-.5c75.67-55.22,154.57-102.66,234.51-140.99,77.77-37.29,156.69-66.06,234.56-85.5l2.14-.53-3.19,50.92-1.15.29c-77.04,19.12-155.1,47.4-232.04,84.04-79.07,37.66-157.14,84.26-232.04,138.52l-2.49,1.81ZM-47.61,538.26l.82,40.22c74.3-53.6,151.68-99.69,230.06-137.02,76.75-36.55,154.63-64.8,231.5-83.97l2.76-44.16c-76.97,19.38-154.95,47.88-231.81,84.74-79.53,38.13-158.02,85.3-233.33,140.19Z"/>
          </g>
          <g>
            <path class="cls-5" d="M-48.34,636.94c152.72-110.62,311.86-184.9,464.64-222.82.99-15.85,1.98-31.7,2.98-47.54-153.98,38.44-314.53,113.85-468.51,226.22.3,14.71.6,29.42.9,44.13Z"/>
            <path d="M-49.89,640.05l-.98-48.05.68-.5c75.67-55.22,154.57-102.66,234.51-140.99,77.77-37.29,156.69-66.06,234.56-85.5l2.14-.53-3.19,50.92-1.15.29c-77.03,19.12-155.1,47.39-232.04,84.04-79.07,37.66-157.14,84.26-232.04,138.52l-2.49,1.81ZM-47.61,593.62l.82,40.22c74.3-53.6,151.68-99.69,230.06-137.02,76.75-36.55,154.63-64.8,231.5-83.97l2.76-44.16c-76.97,19.38-154.95,47.88-231.81,84.74-79.53,38.13-158.02,85.3-233.33,140.19Z"/>
          </g>
          <g>
            <path class="cls-5" d="M-70.62,708.41c161.46-117.13,329.74-195.82,491.32-236.08,1.39-15.95,2.79-31.9,4.18-47.84-162.84,40.61-332.62,120.32-495.46,239.11-.01,14.94-.02,29.87-.04,44.81Z"/>
            <path d="M-72.28,711.66l.04-48.91.68-.5c80.02-58.38,163.46-108.52,247.99-149.03,82.24-39.41,165.7-69.81,248.04-90.35l2.25-.56-4.48,51.33-1.15.29c-81.48,20.3-164.04,50.28-245.39,89.11-83.61,39.9-166.16,89.26-245.35,146.71l-2.63,1.91ZM-68.93,664.44l-.03,40.72c78.55-56.75,160.37-105.56,243.24-145.11,81.17-38.74,163.55-68.69,244.87-89.04l3.87-44.35c-81.4,20.47-163.87,50.6-245.16,89.56-84.12,40.31-167.14,90.18-246.79,148.22Z"/>
          </g>
          <g>
            <path class="cls-5" d="M-48.34,260.05c152.72,110.62,311.86,184.9,464.64,222.82.99,15.85,1.98,31.7,2.98,47.54-153.98-38.44-314.53-113.85-468.51-226.22.3-14.71.6-29.42.9-44.13Z"/>
            <path d="M421.02,532.5l-2.14-.53c-77.87-19.44-156.79-48.21-234.56-85.5-79.94-38.33-158.84-85.77-234.51-140.99l-.68-.5.98-48.05,2.49,1.81c74.9,54.26,152.97,100.86,232.04,138.52,76.93,36.64,155,64.91,232.04,84.04l1.15.29,3.19,50.92ZM-47.61,303.37c75.3,54.9,153.8,102.06,233.33,140.19,76.87,36.86,154.84,65.36,231.81,84.74l-2.76-44.16c-76.87-19.17-154.75-47.42-231.5-83.97-78.37-37.33-155.75-83.41-230.06-137.02l-.82,40.22Z"/>
          </g>
          <g>
            <path class="cls-5" d="M-48.34,204.69c152.72,110.62,311.86,184.9,464.64,222.82.99,15.85,1.98,31.7,2.98,47.54-153.98-38.44-314.53-113.85-468.51-226.22.3-14.71.6-29.42.9-44.13Z"/>
            <path d="M421.02,477.15l-2.14-.53c-77.87-19.44-156.79-48.2-234.56-85.5-79.94-38.33-158.84-85.77-234.51-140.99l-.68-.5.98-48.05,2.49,1.81c74.9,54.26,152.97,100.86,232.04,138.52,76.93,36.64,155,64.92,232.04,84.04l1.15.29,3.19,50.92ZM-47.61,248.02c75.3,54.9,153.8,102.06,233.33,140.19,76.87,36.86,154.84,65.36,231.81,84.74l-2.76-44.16c-76.87-19.17-154.75-47.42-231.5-83.97-78.37-37.33-155.75-83.41-230.06-137.02l-.82,40.22Z"/>
          </g>
          <g>
            <path class="cls-5" d="M-48.34,146.85c152.72,110.62,311.86,184.9,464.64,222.82.99,15.85,1.98,31.7,2.98,47.54-153.98-38.44-314.53-113.85-468.51-226.22.3-14.71.6-29.42.9-44.13Z"/>
            <path d="M421.02,419.3l-2.14-.53c-77.87-19.44-156.79-48.21-234.56-85.5C104.38,294.94,25.48,247.5-50.19,192.28l-.68-.5.98-48.05,2.49,1.81c74.9,54.26,152.97,100.86,232.04,138.52,76.93,36.64,155,64.92,232.04,84.04l1.15.29,3.19,50.92ZM-47.61,190.17c75.3,54.9,153.8,102.06,233.33,140.19,76.87,36.86,154.84,65.36,231.81,84.74l-2.76-44.16c-76.87-19.17-154.75-47.42-231.5-83.97C104.89,249.65,27.51,203.56-46.79,149.96l-.82,40.22Z"/>
          </g>
        </g>
      </g>
      <g>
        <path class="cls-11" d="M191.65,588.99l215.18-446.38c12.88-26.71-.15-58.7-28.01-68.82h0c-27.87-10.12-58.38,6.05-65.65,34.79l-121.51,480.41Z"/>
        <text class="cls-4" transform="translate(368.09 181.05) rotate(-70.04)"><tspan x="0" y="0">C</tspan></text>
      </g>
      <rect x="82.12" width="189.18" height="59.7" rx="11.2" ry="11.2"/>
      <rect x="82.12" y="635.43" width="189.18" height="59.7" rx="11.2" ry="11.2"/>
      <g class="cls-9">
        <g class="cls-8">
          <g>
            <path class="cls-5" d="M-48.34,636.94c152.72-110.62,311.86-184.9,464.64-222.82.99-15.85,1.98-31.7,2.98-47.54-153.98,38.44-314.53,113.85-468.51,226.22.3,14.71.6,29.42.9,44.13Z"/>
            <path class="cls-2" d="M-48.34,636.94c152.72-110.62,311.86-184.9,464.64-222.82.99-15.85,1.98-31.7,2.98-47.54-153.98,38.44-314.53,113.85-468.51,226.22.3,14.71.6,29.42.9,44.13Z"/>
          </g>
          <g>
            <path class="cls-5" d="M-70.62,708.41c161.46-117.13,329.74-195.82,491.32-236.08,1.39-15.95,2.79-31.9,4.18-47.84-162.84,40.61-332.62,120.32-495.46,239.11-.01,14.94-.02,29.87-.04,44.81Z"/>
            <path class="cls-3" d="M-70.62,708.41c161.46-117.13,329.74-195.82,491.32-236.08,1.39-15.95,2.79-31.9,4.18-47.84-162.84,40.61-332.62,120.32-495.46,239.11-.01,14.94-.02,29.87-.04,44.81Z"/>
          </g>
          <g>
            <path class="cls-5" d="M-48.34,260.05c152.72,110.62,311.86,184.9,464.64,222.82.99,15.85,1.98,31.7,2.98,47.54-153.98-38.44-314.53-113.85-468.51-226.22.3-14.71.6-29.42.9-44.13Z"/>
            <path class="cls-2" d="M-48.34,260.05c152.72,110.62,311.86,184.9,464.64,222.82.99,15.85,1.98,31.7,2.98,47.54-153.98-38.44-314.53-113.85-468.51-226.22.3-14.71.6-29.42.9-44.13Z"/>
          </g>
          <g>
            <path class="cls-5" d="M-48.34,204.69c152.72,110.62,311.86,184.9,464.64,222.82.99,15.85,1.98,31.7,2.98,47.54-153.98-38.44-314.53-113.85-468.51-226.22.3-14.71.6-29.42.9-44.13Z"/>
            <path class="cls-2" d="M-48.34,204.69c152.72,110.62,311.86,184.9,464.64,222.82.99,15.85,1.98,31.7,2.98,47.54-153.98-38.44-314.53-113.85-468.51-226.22.3-14.71.6-29.42.9-44.13Z"/>
          </g>
          <g>
            <path class="cls-5" d="M-48.34,146.85c152.72,110.62,311.86,184.9,464.64,222.82.99,15.85,1.98,31.7,2.98,47.54-153.98-38.44-314.53-113.85-468.51-226.22.3-14.71.6-29.42.9-44.13Z"/>
            <path class="cls-2" d="M-48.34,146.85c152.72,110.62,311.86,184.9,464.64,222.82.99,15.85,1.98,31.7,2.98,47.54-153.98-38.44-314.53-113.85-468.51-226.22.3-14.71.6-29.42.9-44.13Z"/>
          </g>
        </g>
      </g>
    </g>
  </g>
</svg>