<?xml version="1.0" encoding="UTF-8"?>
<svg id="Layer_1" data-name="Layer 1" xmlns="http://www.w3.org/2000/svg" viewBox="0 0 1080 1080">
  <defs>
    <style>
      .cls-1 {
        fill: none;
        stroke: #000;
        stroke-miterlimit: 10;
        stroke-width: 1.77px;
      }
    </style>
  </defs>
  <path class="cls-1" d="M263.27,644.49c-24.47,1.78-46.89-1.21-64.96-8.68-.39-.99-.76-1.99-1.11-2.99l58.16-6.11,7.91,17.78Z"/>
  <path class="cls-1" d="M331.82,618.67c-.88,3.69-1.99,7.32-3.34,10.84-9.77,3.75-19.52,6.8-29.14,9.16l3.61-16.96,28.87-3.04Z"/>
  <path class="cls-1" d="M235.89,582.99l-41.95,37.77c-5.28-26.96,1.94-56.25,17.94-78.82,1.13-1.6,2.36-3.14,3.67-4.63l20.34,45.68Z"/>
  <path class="cls-1" d="M312.36,514.14l-10.95,9.85-18.52,16.68-11.43,10.3-42.75-24.68-10.45-6.04-13.87-8,6.12,13.75c-10.21,8.26-19.11,18.21-26.4,29.35-10.57,16.15-18,35.05-19.46,54.38-1.91-2.82-3.58-5.81-5-8.95-21.8-48.34,24.65-116.45,103.75-152.12,17.2-7.76,34.53-13.34,51.35-16.83-4.23,8.7-7.11,17.98-8.29,27.4-2.29,18.3.18,37.29,5.9,54.91Z"/>
  <path class="cls-1" d="M334.56,587.4l-21.66-12.5,8.34-39.24c3.94,8.04,7.03,16.5,9.27,25.16,2.19,8.5,3.62,17.49,4.05,26.58Z"/>
  <path class="cls-1" d="M444.03,530.84c-5.5,12.87-13.94,25.76-24.87,38.04,5.09-9.86,10.35-19.63,15.75-29.32,1.98-3.56,5.03-8.24,5.03-8.24l4.09-.48Z"/>
  <path class="cls-1" d="M447.99,476.33c-5.74,11.49-11.48,22.98-17.22,34.48-.91,1.83-2.41,5.23-2.41,5.23,0,0-4.22.7-5.81.91-6.7.91-13.39,1.82-20.08,2.72-1.39,5.7-2.78,11.41-4.17,17.11,5.36-.65,10.71-1.3,16.07-1.94-12.27,22.7-24.55,45.43-35.57,68.75h-.01c-2.51,1.67-5.06,3.32-7.67,4.92l-3.56-2.06c1.71-6.13,2.85-12.52,3.36-19.15,1.73-22.6-3.63-44.89-10.54-66.24-4.48-13.85-10.31-27.62-14.42-41.75-2.22-7.61-3.94-15.33-4.67-23.23-.89-9.5-.15-19.16,2.46-28.25,28.44-1.89,54.04,2.7,73.16,13.31.13,7.36-1.13,14.35-5.11,18.58-3.66,3.89-7.99,3.98-10.35-1.29-1.7-3.81.82-8.01,2.8-11.16-1.19,1.89-5.34,3.53-7.05,5.44-13.2,14.78,1.96,30.2,18.47,25.35,11.23-3.3,18.29-10.68,22.11-19.84,3.34,4.08,6.13,8.55,8.32,13.4.7,1.55,1.33,3.12,1.89,4.71Z"/>
  <path class="cls-1" d="M450.04,511.68c-.1.53-.21,1.05-.33,1.58l-2.21-.68,2.54-.9Z"/>
  <g>
    <path class="cls-1" d="M285.01,505.72c-10.67-5.33-23.48-3.91-34.93-.57-11.47,3.35-22.15,8.5-31.82,15.1l10.45,6.04c17.02-10.4,38.76-11.27,51.48,9.16,1.04,1.67,1.94,3.42,2.7,5.22l18.52-16.68c-3.43-7.8-8.83-14.49-16.4-18.27Z"/>
    <path class="cls-1" d="M437.78,458.22c-3.82,9.16-10.88,16.54-22.11,19.84-16.51,4.85-31.67-10.57-18.47-25.35,1.71-1.91,5.86-3.55,7.05-5.44-1.98,3.15-4.5,7.35-2.8,11.16,2.36,5.27,6.69,5.18,10.35,1.29,3.98-4.23,5.24-11.22,5.11-18.58-.14-8.54-2.15-17.57-3.93-23.35-3.98-12.93-12.68-24.43-26.82-26.44-12.02-1.7-23.67,5.28-31.03,14.35-5.34,6.59-9.08,14.14-11.38,22.13-2.61,9.09-3.35,18.75-2.46,28.25.73,7.9,2.45,15.62,4.67,23.23,4.11,14.13,9.94,27.9,14.42,41.75,6.91,21.35,12.27,43.64,10.54,66.24-.51,6.63-1.65,13.02-3.36,19.15l-33-19.05c-.43-9.09-1.86-18.08-4.05-26.58-2.24-8.66-5.33-17.12-9.27-25.16l7.76-36.51-16.64,14.99c-5.72-17.62-8.19-36.61-5.9-54.91,1.18-9.42,4.06-18.7,8.29-27.4,10.12-20.74,28.01-38.18,49.33-46.41,28.91-11.16,58.74-3.18,71.55,25.96,6.2,14.1,8.09,32.61,2.15,46.84Z"/>
    <path class="cls-1" d="M281.93,686.39c-9.42,2.72-19.1,4.47-28.8,5.15-14.17,1-28.57-.72-41.82-5.98-23.08-9.17-41.19-28.97-45.62-53.74-1.31-7.34-1.61-14.74-1.04-22.09,1.46-19.33,8.89-38.23,19.46-54.38,7.29-11.14,16.19-21.09,26.4-29.35l5.04,11.31c-1.31,1.49-2.54,3.03-3.67,4.63-16,22.57-23.22,51.86-17.94,78.82l-9.06,8.16-6.54,5.88,14.38-1.51,4.48-.47c.35,1,.72,2,1.11,2.99,1.99,5.03,4.47,9.91,7.49,14.57,4.24,6.54,9.51,12.17,15.81,16.89,16.03,12.01,36.67,13.7,55.55,8.41l4.77,10.71Z"/>
    <path class="cls-1" d="M364.66,615.22c-12.5,32.7-41.5,56.91-74.93,68.67l3.06-14.38c6.17-3.2,11.88-7.16,16.85-11.72,8.67-7.96,14.81-17.67,18.84-28.28,1.35-3.52,2.46-7.15,3.34-10.84l26.46-2.78,6.38-.67Z"/>
  </g>
  <path class="cls-1" d="M447.5,512.58l2.21.68c.12-.53.23-1.05.33-1.58l-2.54.9ZM499.5,521.49s-.01.05-.02.08c.02,0,.04-.01.06-.01l-.04-.07Z"/>
  <polygon class="cls-1" points="379.96 613.61 373.86 614.25 364.66 615.22 358.28 615.89 331.82 618.67 302.95 621.71 299.34 638.67 292.79 669.51 289.73 683.89 286.85 697.45 281.93 686.39 277.16 675.68 263.27 644.49 255.36 626.71 197.2 632.82 192.72 633.29 178.34 634.8 184.88 628.92 193.94 620.76 235.89 582.99 215.55 537.31 210.51 526 204.39 512.25 218.26 520.25 228.71 526.29 271.46 550.97 282.89 540.67 301.41 523.99 312.36 514.14 329 499.15 321.24 535.66 312.9 574.9 334.56 587.4 367.56 606.45 371.12 608.51 375.37 610.96 379.96 613.61"/>
  <path class="cls-1" d="M900.11,397.18s-31.22,58.13-45.59,86.17c-3.09-8.35-15.19-8-23.35-4.45-43.04,18.68-56.08,75.04-94.17,102.43-5.54,3.98-13.52,7.19-18.75,2.81-2.23-1.87-3.37-4.76-3.81-7.63-.66-4.28-.66-8.54.79-12.66,6.81-19.43,32.95-20.27,47.16-31.69,9.94-7.99,17.46-18.76,22.37-30.49,2.54-6.05,3.52-13.4-2.58-17.58-7.86-5.38-18.42-2.25-26.23,1.57-24.83,12.16-41.75,36.44-53.41,60.72-4.47,9.31-9.38,19.84-16.4,27.49-7.48,8.17-11.3,11.52-22.13,16.69,5.83-26.23,28.35-45.92,36.15-71.63,2.17-7.16,2.21-16.68-4.4-20.16-3.96-2.09-8.81-1.05-13.03.45-11.53,4.11-21.9,11.44-29.61,20.94l50.84-92.18-25.29,5.81c-22.33,41.4-53.79,99.19-69.08,123.48-8.78,13.93-18.52,27.5-30.58,38.81-6.27,5.88-30.2,27.49-36.02,10.7-1.74-5.04-.02-10.56,1.86-15.55,7.12-18.95,14.82-38.28,27.68-54.18,4.65-5.74,10.35-12.48,17.32-15.38,1.65-.69,3.43-1.15,5.21-.98,4.08.38,6.35,4.36,6.83,8.08.4,3.07-.06,6.33-.51,9.38-.18,1.19-1.91,7.63-2.78,8.34,5.12-4.18,13.11-15.59,15.61-21.71.8-1.95,1.45-4.06,1.18-6.16-.64-5.1-6.28-8.02-11.39-8.7-11.11-1.48-22.14,3.41-31.35,9.8-21.49,14.89-36.15,38.01-45.64,62.37-3.02,7.74-7.35,15.24-13.08,21.27-8.18,8.59-13.35,15.78-16.16,17.06-1.81.82-3.51.9-5.38.21-2.58-.94-2.95-4.42-2.39-7.11.46-2.22,2.89-7.26,4.06-9.75,13.07-27.76,24.27-51.54,39.4-78.23,1.31-2.31,5.31-9.69,5.31-9.69,0,0,14.08-2.71,21.87-4.1,2.15-6.91,3.25-10.44,5.41-17.34-4.63.96-9.25,1.93-13.88,2.89,8.77-18.19,17.53-36.38,26.3-54.57-6.02.73-12.03,1.46-18.05,2.19-1.39.17-4.64.65-4.64.65,0,0-1.37,2.64-2.08,3.94-9.25,16.79-17.89,33.9-25.92,51.31-7.68.93-15.36,1.86-23.04,2.79-1.75,5.96-3.49,11.92-5.24,17.88l.04.07h.01c4.91-.87,9.81-1.72,14.73-2.59-13.48,26.08-26.95,52.15-40.42,78.23-6.54,12.66-13.35,25.65-24.21,34.87-1.28,1.09-2.75,2.17-4.43,2.19-2.34.03-4.26-2.1-4.78-4.38-.52-2.28.03-4.66.65-6.92,8.95-32.8,30.6-60.55,44-91.8-3.14.4-6.28.8-9.42,1.2h-.01l-9.2,11.35,1.23-10.33-3.03.39c-13.34,34.58-31.71,67.21-54.36,96.55-2.11,2.75-4.36,5.54-7.44,7.14-3.07,1.6-7.21,1.68-9.7-.73-3.66-3.53-1.86-9.63.22-14.27,8.08-18.1,16.68-35.97,25.78-53.58,5.09-9.86,10.35-19.63,15.75-29.32,1.98-3.56,5.03-8.24,5.03-8.24l4.09-.48,17.54-2.06s1.98-4.74,3.29-10.87h0s-15.15-4.65-15.15-4.65l-2.21-.68,2.54-.9,5.85-2.07c7.87-17.29,17.83-38.09,25.52-55.08-7.17.75-16.61,1.89-23.84,2.62-3.19,6.39-6.39,12.78-9.58,19.18-5.74,11.49-11.48,22.98-17.22,34.48-.91,1.83-2.41,5.23-2.41,5.23,0,0-4.22.7-5.81.91-6.7.91-13.39,1.82-20.08,2.72-1.39,5.7-2.78,11.41-4.17,17.11,5.36-.65,10.71-1.3,16.07-1.94-12.27,22.7-24.55,45.43-35.57,68.75h-.01c-1.16,2.46-2.3,4.91-3.42,7.37l4.59,2.65-6.1.64c-1.6,3.55-3.18,7.11-4.71,10.69-3.39,7.91-6.11,18.32.26,24.1,3.91,3.54,9.86,3.68,14.99,2.47,13.96-3.29,24.46-14.49,33.83-25.35-2.63,7.02,2.16,15.34,9.11,18.13,6.95,2.8,15.11.93,21.39-3.15,6.28-4.08,11.02-10.11,15.39-16.2,1.95,7.63,10.74,11.98,18.57,11.16,7.83-.82,14.68-5.61,20.42-10.99,5.75-5.38,10.83-11.53,17.23-16.12-.54,7.49,4.97,14.51,11.85,16.96,15.68,5.61,33.7-9.64,43.99-19.68,4.32-4.21,8.34-8.73,12.2-13.36,3.41-4.09,8.03-8.53,10.55-13.23-6.65,12.39-15.08,28.44-25.74,44.08,11.14-3.47,27.13-8.23,29.59-9.08,0,0,37.62-80.59,67.4-101.91,1.89-1.36,4.34-2.69,6.44-1.68,2.89,1.4,2.38,5.65,1.27,8.66-9.51,25.72-30.25,46.81-36.04,73.61-.88,4.08-1.25,8.78,1.39,12.01,4.21,5.16,12.5,2.95,18.34-.25,11.96-6.55,22.6-15.48,31.12-26.11-3.12,6.47.86,14.58,6.53,18.27,6.75,4.4,17.24,2.57,24.18-.27,17.77-7.28,30.72-23.03,42.56-37.46-1.73,2.11-1.78,8.28-2.07,11.08-.3,2.8-.1,5.67.57,8.41,1.97,8.08,8.64,14.14,17.28,11.99,8.14-2.02,15.82-7.35,22.21-12.89,3.27-2.83,7.19-6.94,9.94-10.56,1.95-2.55,5.78-7.69,7.66-10.34-2.88,4.05-18.87,33.05-18.87,33.05l23.24-10.52,99.02-187.8-24.84,5.21ZM737.41,524.43c3.69-5.84,7.81-11.48,12.37-16.91.31-.37,1.02-1.23,2.12-2.58,1.09-1.35,2.36-2.76,3.77-4.25,1.41-1.47,2.94-2.94,4.59-4.37,1.65-1.44,3.18-2.55,4.59-3.32,1.42-.78,2.6-1.08,3.54-.92.94.17,1.49,1.1,1.65,2.8.15,2.02-.4,4.43-1.65,7.22-1.26,2.79-2.36,5.12-3.3,6.99-1.41,2.43-3.03,4.76-4.83,7.01-1.81,2.25-3.73,4.4-5.77,6.45-4.09,4.26-8.36,8.32-12.84,12.17-4.47,3.85-9.46,6.36-14.96,7.55,3.46-6.05,7.03-11.99,10.72-17.84ZM842.4,505.04c-3.14,8.59-6.49,17.02-10.49,25.14-3.04,6.16-6.46,12.13-10.45,17.86-5.18,7.42-11.05,14.57-17.57,20.86-3.22,3.11-6.94,5.84-11.22,7.17-2.03.63-4.39.89-6.18-.25-3.97-2.53-3.17-8.41-2.23-12.27,1.9-7.79,5.39-15,9.34-21.93,4.16-7.28,8.61-14.39,13.35-21.3,4.2-6.12,8.27-12.35,12.62-18.39,4.48-6.2,14.53-18.01,22.71-9.76,3.6,3.62,1.62,8.77.12,12.87Z"/>
  <path class="cls-1" d="M450.04,511.68c-.1.53-.21,1.05-.33,1.58l-2.21-.68,2.54-.9Z"/>
  <path class="cls-1" d="M499.55,521.56l5.23,8.6-21.88-6.72-7.23,8.92h-.01l-9.2,11.35,1.23-10.33h.01l1.68-14.09-4.52-1.38h0s-15.15-4.65-15.15-4.65c.12-.53.23-1.05.33-1.58l5.85-2.07,15.3-5.41,2.92-24.41,11.71,19.24,23.69-8.38-16.44,20.27,6.43,10.57s-.01.05-.02.08c.02,0,.04-.01.06-.01h.01Z"/>
  <path class="cls-1" d="M499.54,521.56s-.04.01-.06.01c.01-.03.02-.05.02-.08l.04.07Z"/>
</svg>