<?xml version="1.0" encoding="UTF-8"?>
<svg id="Layer_1" data-name="Layer 1" xmlns="http://www.w3.org/2000/svg" viewBox="0 0 1080 1080">
  <defs>
    <style>
      .cls-1 {
        stroke: #fff;
        stroke-miterlimit: 10;
        stroke-width: 2.98px;
      }
    </style>
  </defs>
  <ellipse class="cls-1" cx="540" cy="533.59" rx="265" ry="161.97" transform="translate(-171.61 269.14) rotate(-24.27)"/>
  <path class="cls-1" d="M612.67,437.64c6.94,23.82,16.77,47.05,24.33,70.41,11.65,36.01,20.69,73.62,17.77,111.73-7.74,101.02-102.89,169.07-198.68,175.82-23.9,1.68-48.19-1.21-70.53-10.09-38.94-15.47-69.47-48.86-76.94-90.63-8.05-44.97,6.48-91.4,31.06-128.99,26.26-40.14,64.95-71.14,111.28-84.67,19.31-5.64,40.92-8.03,58.91.97,22.67,11.33,33.79,38.09,35.34,63.38,1.21,19.85-2.42,40.18-11.83,57.69-9.41,17.51-24.8,32.03-43.42,39.01,17.51-14.68,23.15-39.33,23.15-62.18,0-16.59-2.6-33.7-11.37-47.78-29.74-47.76-88.7-26.49-115.23,10.95-37.37,52.75-46.34,127.21-10.25,182.9,7.14,11.03,16.03,20.53,26.66,28.5,44.38,33.26,109.73,19.58,148.48-16,44.31-40.68,49.46-108.39,35.2-163.55-3.91-15.13-9.35-29.89-16.34-43.87-19.19-38.38-29.65-84.06-24.21-127.49,6.74-53.77,46.15-104.78,97.18-124.48,48.77-18.83,99.08-5.37,120.69,43.78,17.18,39.07,14.74,98.23-33.66,112.47-27.85,8.19-53.42-17.83-31.15-42.75,2.87-3.22,9.88-5.98,11.89-9.18-3.34,5.32-7.6,12.39-4.72,18.83,3.98,8.88,11.27,8.73,17.45,2.17,14.52-15.44,7.58-52.59,2-70.72-6.71-21.8-21.39-41.2-45.24-44.59-20.27-2.88-39.92,8.91-52.33,24.2-19.28,23.77-26.17,54.88-23.35,84.98,1.25,13.31,4.14,26.33,7.88,39.18Z"/>
  <polygon class="cls-1" points="584.07 471.1 556.91 598.86 670.02 664.16 540.13 677.82 512.97 805.57 459.85 686.25 329.95 699.91 427.02 612.51 373.89 493.19 487 558.5 584.07 471.1"/>
</svg>