<?xml version="1.0" encoding="UTF-8"?>
<svg id="Layer_1" data-name="Layer 1" xmlns="http://www.w3.org/2000/svg" viewBox="0 0 1080 1080">
  <defs>
    <style>
      .cls-1 {
        fill: none;
        stroke: #000;
        stroke-miterlimit: 10;
        stroke-width: 2.98px;
      }
    </style>
  </defs>
  <path class="cls-1" d="M473.2,716.24c-41.26,3.01-79.07-2.03-109.55-14.62-.66-1.68-1.29-3.36-1.88-5.06l98.08-10.31,13.35,29.99Z"/>
  <path class="cls-1" d="M427.02,612.51l-70.76,63.72c-8.91-45.48,3.27-94.88,30.25-132.96,1.91-2.69,3.98-5.3,6.2-7.8l34.31,77.04Z"/>
  <path class="cls-1" d="M555.99,496.38l-18.45,16.61-31.25,28.14-19.29,17.37-72.08-41.62-17.64-10.19-23.39-13.5,10.33,23.2c-17.24,13.93-32.26,30.71-44.55,49.5-17.81,27.23-30.35,59.12-32.82,91.72-3.22-4.75-6.04-9.79-8.43-15.09-36.77-81.54,41.58-196.42,175-256.58,29.02-13.09,58.26-22.51,86.62-28.39-7.15,14.67-12,30.32-13.99,46.21-3.87,30.88.3,62.9,9.94,92.62Z"/>
  <path class="cls-1" d="M588.82,672.7c-1.5,6.23-3.37,12.34-5.63,18.28-16.47,6.32-32.92,11.46-49.14,15.45l6.08-28.61,48.69-5.12Z"/>
  <path class="cls-1" d="M593.44,619.95l-36.53-21.09,14.06-66.16c6.65,13.55,11.86,27.81,15.64,42.42,3.7,14.33,6.1,29.5,6.83,44.83Z"/>
  <path class="cls-1" d="M655.11,655.55l-6.01-3.47c2.89-10.34,4.81-21.12,5.67-32.3,2.92-38.11-6.12-75.72-17.77-111.73-7.56-23.36-17.4-46.59-24.33-70.41-3.74-12.85-6.64-25.87-7.88-39.18-1.5-16.02-.25-32.32,4.17-47.66,47.96-3.19,91.13,4.55,123.38,22.45.22,12.41-1.91,24.21-8.62,31.35-6.17,6.55-13.47,6.71-17.45-2.18-2.88-6.43,1.37-13.51,4.72-18.83-2.01,3.2-9.02,5.96-11.89,9.18-22.27,24.93,3.31,50.94,31.15,42.75,18.95-5.57,30.85-18.03,37.29-33.47,5.64,6.88,10.35,14.42,14.04,22.61,32.05,71.07-23.36,167.48-126.47,230.89Z"/>
  <g>
    <path class="cls-1" d="M509.87,482.19c-17.99-9-39.6-6.61-58.91-.97-19.34,5.64-37.35,14.34-53.68,25.47l17.64,10.19c28.72-17.54,65.37-19.01,86.82,15.44,1.76,2.82,3.27,5.77,4.55,8.81l31.25-28.14c-5.8-13.14-14.9-24.42-27.67-30.8Z"/>
    <path class="cls-1" d="M504.67,786.92c-15.89,4.58-32.22,7.53-48.58,8.68-23.9,1.68-48.19-1.22-70.53-10.09-38.94-15.47-69.47-48.86-76.95-90.63-2.22-12.38-2.72-24.88-1.76-37.27,2.47-32.6,15.01-64.49,32.82-91.72,12.29-18.79,27.31-35.57,44.55-49.5l8.49,19.08c-2.22,2.5-4.29,5.11-6.2,7.8-26.98,38.08-39.16,87.48-30.25,132.96l-15.29,13.76-11.02,9.92,24.26-2.55,7.56-.8c.59,1.7,1.22,3.38,1.88,5.06,3.34,8.48,7.53,16.7,12.62,24.55,7.14,11.03,16.03,20.53,26.66,28.5,27.03,20.26,61.85,23.1,93.69,14.18l8.05,18.07Z"/>
    <path class="cls-1" d="M644.23,666.87c-21.09,55.16-70.02,95.99-126.4,115.83l5.16-24.27c10.4-5.39,20.03-12.06,28.42-19.76,14.62-13.43,24.98-29.8,31.78-47.69,2.26-5.94,4.13-12.05,5.63-18.28l44.61-4.69,10.8-1.14Z"/>
    <path class="cls-1" d="M767.54,402.05c-6.44,15.44-18.34,27.9-37.29,33.47-27.84,8.19-53.42-17.82-31.15-42.75,2.87-3.22,9.88-5.98,11.89-9.18-3.35,5.32-7.6,12.4-4.72,18.83,3.98,8.89,11.28,8.73,17.45,2.18,6.71-7.14,8.84-18.94,8.62-31.35-.24-14.4-3.63-29.64-6.63-39.38-6.71-21.8-21.39-41.2-45.24-44.59-20.28-2.88-39.92,8.91-52.33,24.21-9.01,11.11-15.32,23.84-19.18,37.31-4.42,15.34-5.67,31.64-4.17,47.66,1.24,13.31,4.14,26.33,7.88,39.18,6.93,23.82,16.77,47.05,24.33,70.41,11.65,36.01,20.69,73.62,17.77,111.73-.86,11.18-2.78,21.96-5.67,32.3l-55.66-32.13c-.73-15.33-3.13-30.5-6.83-44.83-3.78-14.61-8.99-28.87-15.64-42.42l13.1-61.6-28.08,25.28c-9.64-29.72-13.81-61.74-9.94-92.62,1.99-15.89,6.84-31.54,13.99-46.21,17.06-34.98,47.24-64.39,83.19-78.27,48.77-18.83,99.08-5.37,120.69,43.77,10.45,23.78,13.64,55,3.62,79Z"/>
  </g>
  <polygon class="cls-1" points="670.02 664.16 644.23 666.87 633.43 668.01 588.82 672.7 540.13 677.82 534.05 706.43 522.99 758.43 517.83 782.7 512.97 805.57 504.67 786.92 496.62 768.85 473.2 716.24 459.85 686.25 361.77 696.56 354.21 697.36 329.95 699.91 340.97 689.99 356.26 676.23 427.02 612.51 392.71 535.47 384.22 516.39 373.89 493.19 397.28 506.69 414.92 516.88 487 558.5 506.29 541.13 537.54 512.99 555.99 496.38 584.07 471.1 570.97 532.7 556.91 598.86 593.44 619.95 649.1 652.08 655.11 655.55 670.02 664.16"/>
</svg>