<?xml version="1.0" encoding="UTF-8"?>
<svg id="Layer_2" data-name="Layer 2" xmlns="http://www.w3.org/2000/svg" viewBox="0 0 682.22 560.3">
  <g id="Layer_1-2" data-name="Layer 1">
    <g>
      <g>
        <path d="M365.46,330.12v6.97c3.12,0,7.26-.39,12.06-.94-.78-2.29-1.58-4.57-2.4-6.83-2.9.48-6.07.8-9.66.8Z"/>
        <path d="M330.64,250.47c-2.32-2.58-4.66-5-7.03-7.27h-100.99c-1.61,2.3-3.09,4.74-4.47,7.27h112.49Z"/>
        <path d="M226.45,337.09v-6.97c-8.46,0-15.14-1.23-20.34-3.38.23,2.85.5,5.7.83,8.54,7.98.95,14.86,1.81,19.51,1.81Z"/>
        <path d="M183.14,333.07c-.86-8.34-1.3-16.74-1.3-25.19,0-5.09.26-10.1.75-15.02-6.98,12.87-20,29.29-43.67,35.45-4.54,1.21-9.69,1.82-15.75,1.82v6.97c10.3,0,31.5-4.24,51.79-4.24,2.71,0,5.45.08,8.18.22Z"/>
        <path d="M206.78,229.77c3.7-4.56,7.71-8.58,11.99-12.11L291.26,18.47c2.12,2.42,3.03,3.64,82.68,224.72h-24.62c1.94,2.29,3.86,4.64,5.75,7.11.04.05.08.1.12.16h21.48c12.42,33.92,19.08,51.49,19.08,63.3,0,4.01-.96,6.8-2.74,8.84,1.35,3.74,2.65,7.53,3.88,11.36,5.66-.55,11.56-.98,17.44-1.09,6.68-6.61,13.14-12.93,19.41-18.99-4.4-6.03-8.5-14.13-12.56-24.97L324.27,22.11c-3.03-8.48-5.15-15.45-6.97-22.11-.61,0-7.27,4.85-13.63,4.85-19.99,0-33.62-4.54-43.92-4.54v7.27c10.6,0,18.47.61,25.44,6.36l-78.42,215.84Z"/>
        <path d="M468.74,337.09v-6.97c-7.78,0-14.44-.93-20.37-3.66-2.65,2.55-5.33,5.16-8.05,7.81,11.7,1.23,22.11,2.82,28.42,2.82Z"/>
      </g>
      <path d="M682.22,167.53c-96.14,46.78-164,164-279.67,363.98,50.38-3.08,77.12-28.27,106.42-64.26h6.17c-32.9,40.1-59.64,67.35-115.68,69.92l-10.28,17.99h-28.27l11.82-19.02c-38.04-4.63-74.55-22.11-104.88-49.35-60.66,45.24-121.84,73.52-184.05,73.52-55.01,0-83.8-22.11-83.8-58.61,0-20.56,10.8-37.02,24.16-37.02,6.17,0,9.26,3.6,9.26,7.71,0,15.94-25.71,14.39-25.71,32.9,0,29.3,25.19,49.35,76.09,49.35,59.64,0,119.79-27.76,179.42-71.97-44.73-42.16-75.06-104.36-75.06-174.8,0-53.98,29.3-101.28,80.2-101.28,64.78,0,110.02,76.09,129.04,152.17,141.89-143.44,193.3-168.11,283.27-194.33l1.54,3.09ZM268.88,478.04c34.44-26.22,68.89-57.58,102.82-93.05l20.56-21.08c-17.99-72.49-61.18-151.66-123.38-151.66-44.21,0-69.92,41.64-69.92,94.6,0,69.92,28.28,130.58,69.92,171.2ZM375.81,531l12.34-20.56c15.42-25.71,15.42-76.6,11.31-107.96-1.03-9.77-3.08-20.05-5.65-30.85-5.66,5.65-11.31,11.31-16.97,17.48-34.44,35.47-68.89,67.35-103.34,93.57,29.31,27.25,64.78,44.21,102.31,48.33ZM404.09,485.24c92.03-162.97,175.82-266.82,252.94-307.95v-.51c-71.97,24.68-121.33,51.41-257.57,189.19,3.09,12.34,5.14,25.19,6.68,37.02,3.09,25.19,3.09,60.15-3.08,82.26h1.03Z"/>
    </g>
  </g>
</svg>