<?xml version="1.0" encoding="UTF-8"?>
<svg id="Layer_2" data-name="Layer 2" xmlns="http://www.w3.org/2000/svg" viewBox="0 0 620.78 571.02">
  <defs>
    <style>
      .cls-1 {
        stroke: #000;
        stroke-miterlimit: 10;
        stroke-width: 15.27px;
      }

      .cls-1, .cls-2 {
        fill: #fff;
      }
    </style>
  </defs>
  <g id="Layer_1-2" data-name="Layer 1">
    <g>
      <g>
        <path d="M592.97,128.02c-1.12,6.58-3.62,11.95-7.51,16.12-3.89,4.17-9.05,6.94-15.47,8.3l-54.71,11.63c-6.34,1.35-10.89.64-13.64-2.12-2.75-2.76-3.57-7.42-2.45-14l7.58-44.59c.18-1.08.21-1.95.07-2.62-.14-.66-.39-1.15-.76-1.47-.37-.31-.86-.47-1.49-.46-.63,0-1.34.09-2.12.25s-1.51.39-2.18.66c-.68.27-1.26.66-1.77,1.16-.51.5-.95,1.14-1.33,1.91-.38.78-.67,1.7-.85,2.79l-10.1,59.46c-.73,4.32-.44,8.1.9,11.34,1.33,3.23,3.39,6.14,6.18,8.72,2.78,2.58,6.12,4.97,10.01,7.18,3.89,2.21,8.06,4.43,12.49,6.66,4.43,2.23,8.99,4.58,13.68,7.06,4.68,2.48,9.16,5.33,13.42,8.54,4.26,3.22,8.18,6.88,11.76,10.98,3.57,4.11,6.49,8.93,8.77,14.48,2.28,5.55,3.76,11.88,4.43,18.99.67,7.11.23,15.25-1.33,24.44l-11.48,67.56c-1.5,8.83-3.4,17.13-5.68,24.91-2.28,7.78-5.3,15.06-9.05,21.85-3.75,6.79-8.35,13.06-13.81,18.82-5.46,5.77-12.13,11.07-20.03,15.92-7.9,4.85-17.15,9.2-27.77,13.07-10.62,3.86-22.92,7.28-36.9,10.25-13.98,2.97-26,4.72-36.05,5.25-10.05.53-18.47-.07-25.24-1.8-6.78-1.73-12.09-4.48-15.92-8.28-3.83-3.79-6.57-8.5-8.2-14.15-1.64-5.64-2.31-12.14-2.02-19.5.29-7.36,1.18-15.45,2.68-24.28l7.12-41.89c1.13-6.67,3.66-12.07,7.59-16.2,3.93-4.13,9.06-6.87,15.4-8.22l54.71-11.63c6.43-1.37,11-.69,13.72,2.03,2.72,2.72,3.51,7.42,2.38,14.08l-7.58,44.6c-.18,1.08-.2,1.93-.06,2.55s.4,1.09.77,1.4c.36.31.86.49,1.48.53.62.04,1.32-.02,2.1-.19.78-.17,1.51-.41,2.19-.73.68-.32,1.27-.73,1.78-1.22.5-.5.94-1.11,1.32-1.84.37-.73.65-1.64.84-2.72l10.1-59.46c.74-4.33.44-8.1-.89-11.34-1.34-3.23-3.4-6.14-6.18-8.72-2.78-2.58-6.12-4.97-10.01-7.18-3.89-2.21-8.06-4.43-12.49-6.66-4.44-2.22-9-4.58-13.68-7.06-4.69-2.48-9.16-5.33-13.43-8.54-4.27-3.22-8.18-6.88-11.75-10.98-3.57-4.1-6.5-8.93-8.78-14.48-2.28-5.55-3.75-11.88-4.43-18.99-.68-7.1-.23-15.25,1.33-24.44l11.48-67.57c1.5-8.83,3.39-17.13,5.68-24.91,2.28-7.78,5.3-15.06,9.05-21.85,3.75-6.79,8.35-13.06,13.81-18.83,5.46-5.76,12.13-11.07,20.03-15.92,7.9-4.85,17.15-9.2,27.77-13.07,10.62-3.86,22.91-7.28,36.9-10.25,13.98-2.97,25.99-4.72,36.05-5.25,10.05-.53,18.46.07,25.24,1.8,6.78,1.73,12.08,4.49,15.92,8.28,3.83,3.79,6.57,8.5,8.21,14.15,1.64,5.64,2.31,12.14,2.02,19.5-.29,7.36-1.18,15.45-2.68,24.28l-7.12,41.89Z"/>
        <g>
          <path d="M543.82,28.72c7.11,0,13.26.66,18.45,1.98,6.78,1.73,12.08,4.49,15.92,8.28,3.83,3.79,6.57,8.5,8.21,14.15,1.64,5.64,2.31,12.14,2.02,19.5-.29,7.36-1.18,15.45-2.68,24.28l-7.12,41.89c-1.12,6.58-3.62,11.95-7.51,16.12-3.89,4.17-9.05,6.94-15.47,8.3l-54.7,11.63c-2.08.44-3.97.66-5.66.66-3.47,0-6.13-.93-7.97-2.78-2.75-2.76-3.57-7.42-2.45-14l7.58-44.59c.18-1.08.21-1.95.07-2.62-.14-.66-.39-1.15-.76-1.47-.36-.31-.85-.46-1.47-.46,0,0-.01,0-.02,0-.63,0-1.34.09-2.12.25-.78.17-1.51.39-2.18.66-.68.27-1.26.66-1.77,1.16-.51.5-.95,1.14-1.33,1.91-.38.78-.67,1.7-.85,2.79l-10.1,59.46c-.73,4.32-.44,8.1.9,11.34,1.33,3.23,3.39,6.14,6.18,8.72,2.78,2.58,6.12,4.97,10.01,7.18,3.89,2.21,8.06,4.43,12.49,6.66,4.43,2.23,8.99,4.58,13.68,7.06,4.68,2.48,9.16,5.33,13.42,8.54,4.26,3.22,8.18,6.88,11.76,10.98,3.57,4.11,6.49,8.93,8.77,14.48,2.28,5.55,3.76,11.88,4.43,18.99.67,7.11.23,15.25-1.33,24.44l-11.48,67.57c-1.5,8.83-3.4,17.13-5.68,24.91-2.28,7.78-5.3,15.06-9.05,21.85-3.75,6.79-8.35,13.06-13.81,18.82-5.46,5.77-12.13,11.07-20.03,15.92-7.9,4.85-17.15,9.2-27.77,13.07-10.62,3.86-22.92,7.28-36.9,10.25-13.98,2.97-26,4.72-36.05,5.25-2.36.12-4.62.19-6.8.19-7.11,0-13.25-.66-18.44-1.98-6.78-1.73-12.09-4.48-15.92-8.28-3.83-3.79-6.57-8.5-8.2-14.15-1.64-5.64-2.31-12.14-2.02-19.5.29-7.36,1.18-15.45,2.68-24.28l7.12-41.89c1.13-6.67,3.66-12.07,7.59-16.2,3.93-4.13,9.06-6.87,15.4-8.22l54.7-11.63c2.15-.46,4.09-.68,5.82-.68,3.45,0,6.09.91,7.9,2.72,2.72,2.72,3.51,7.42,2.38,14.08l-7.58,44.6c-.18,1.08-.2,1.93-.06,2.55s.4,1.09.77,1.4c.36.31.86.49,1.48.53.12,0,.25.01.38.01.52,0,1.09-.07,1.72-.2.78-.17,1.51-.41,2.19-.73.68-.32,1.27-.73,1.78-1.22.5-.5.94-1.11,1.32-1.84.37-.73.65-1.64.84-2.72l10.1-59.46c.74-4.33.44-8.1-.89-11.34-1.34-3.23-3.4-6.14-6.18-8.72-2.78-2.58-6.12-4.97-10.01-7.18-3.89-2.21-8.06-4.43-12.49-6.66-4.44-2.22-9-4.58-13.68-7.06-4.69-2.48-9.16-5.33-13.43-8.54-4.27-3.22-8.18-6.88-11.75-10.98-3.57-4.1-6.5-8.93-8.78-14.48-2.28-5.55-3.75-11.88-4.43-18.99-.68-7.1-.23-15.25,1.33-24.44l11.48-67.57c1.5-8.83,3.39-17.13,5.68-24.91,2.28-7.78,5.3-15.06,9.05-21.85,3.75-6.79,8.35-13.06,13.81-18.83,5.46-5.76,12.13-11.07,20.03-15.92,7.9-4.85,17.15-9.2,27.77-13.07,10.62-3.86,22.91-7.28,36.9-10.25,13.98-2.97,25.99-4.72,36.05-5.25,2.35-.12,4.62-.19,6.8-.19M543.82,10.77h0c-2.48,0-5.08.07-7.74.21-10.94.58-24.01,2.47-38.84,5.62-14.73,3.13-27.95,6.81-39.3,10.94-11.7,4.26-22.13,9.18-31.02,14.63-9.2,5.65-17.16,12-23.67,18.87-6.48,6.85-12.03,14.41-16.49,22.5-4.37,7.9-7.92,16.48-10.56,25.47-2.46,8.39-4.53,17.46-6.15,26.95l-11.48,67.57c-1.82,10.71-2.32,20.51-1.5,29.15.84,8.84,2.76,16.95,5.69,24.1,3.01,7.34,6.99,13.88,11.84,19.45,4.37,5.02,9.24,9.58,14.49,13.53,5.01,3.78,10.34,7.17,15.84,10.08,4.8,2.54,9.52,4.97,14.02,7.23,1.07.54,2.13,1.08,3.16,1.62l-53.02,11.27c-9.92,2.11-18.23,6.62-24.68,13.42-6.41,6.75-10.53,15.35-12.27,25.55l-7.12,41.89c-1.63,9.57-2.61,18.51-2.92,26.59-.36,9.24.55,17.72,2.72,25.19,2.48,8.59,6.8,15.97,12.83,21.92,6.09,6.03,14.2,10.37,24.09,12.89,6.7,1.71,14.19,2.54,22.87,2.54,2.48,0,5.09-.07,7.75-.21,10.94-.58,24.01-2.47,38.83-5.62,14.72-3.13,27.94-6.81,39.3-10.94,11.7-4.26,22.14-9.18,31.02-14.64,9.21-5.65,17.17-12,23.68-18.88,6.47-6.83,12.01-14.39,16.48-22.49,4.37-7.91,7.92-16.48,10.56-25.47,2.48-8.44,4.55-17.51,6.15-26.96l11.48-67.56c1.82-10.69,2.32-20.5,1.5-29.15-.84-8.83-2.75-16.94-5.69-24.1-3.02-7.34-7-13.88-11.83-19.45-4.38-5.03-9.25-9.58-14.49-13.53-5.02-3.78-10.34-7.17-15.84-10.08-4.67-2.47-9.38-4.9-14.01-7.23-1.08-.54-2.14-1.08-3.19-1.63l53.02-11.27c10.07-2.14,18.44-6.72,24.87-13.62,6.3-6.76,10.37-15.29,12.08-25.35l7.12-41.89c1.62-9.52,2.6-18.47,2.92-26.58.36-9.25-.55-17.73-2.72-25.2-2.49-8.59-6.81-15.97-12.83-21.92-6.11-6.04-14.22-10.38-24.09-12.9-6.71-1.71-14.2-2.54-22.89-2.54h0Z"/>
          <path d="M558.18,17.95c7.11,0,13.26.66,18.45,1.98,6.78,1.73,12.08,4.49,15.92,8.28,3.83,3.79,6.57,8.5,8.21,14.15,1.64,5.64,2.31,12.14,2.02,19.5-.29,7.36-1.18,15.45-2.68,24.28l-7.12,41.89c-1.12,6.58-3.62,11.95-7.51,16.12-3.89,4.17-9.05,6.94-15.47,8.3l-54.7,11.63c-2.08.44-3.97.66-5.66.66-3.47,0-6.13-.93-7.97-2.78-2.75-2.76-3.57-7.42-2.45-14l7.58-44.59c.18-1.08.21-1.95.07-2.62-.14-.66-.39-1.15-.76-1.47-.36-.31-.85-.46-1.47-.46,0,0-.01,0-.02,0-.63,0-1.34.09-2.12.25-.78.17-1.51.39-2.18.66-.68.27-1.26.66-1.77,1.16-.51.5-.95,1.14-1.33,1.91-.38.78-.67,1.7-.85,2.79l-10.1,59.46c-.73,4.32-.44,8.1.9,11.34,1.33,3.23,3.39,6.14,6.18,8.72,2.78,2.58,6.12,4.97,10.01,7.18,3.89,2.21,8.06,4.43,12.49,6.66,4.43,2.23,8.99,4.58,13.68,7.06,4.68,2.48,9.16,5.33,13.42,8.54,4.26,3.22,8.18,6.88,11.76,10.98,3.57,4.11,6.49,8.93,8.77,14.48,2.28,5.55,3.76,11.88,4.43,18.99.67,7.11.23,15.25-1.33,24.44l-11.48,67.57c-1.5,8.83-3.4,17.13-5.68,24.91-2.28,7.78-5.3,15.06-9.05,21.85-3.75,6.79-8.35,13.06-13.81,18.82-5.46,5.77-12.13,11.07-20.03,15.92-7.9,4.85-17.15,9.2-27.77,13.07-10.62,3.86-22.92,7.28-36.9,10.25-13.98,2.97-26,4.72-36.05,5.25-2.36.12-4.62.19-6.8.19-7.11,0-13.25-.66-18.44-1.98-6.78-1.73-12.09-4.48-15.92-8.28-3.83-3.79-6.57-8.5-8.2-14.15-1.64-5.64-2.31-12.14-2.02-19.5.29-7.36,1.18-15.45,2.68-24.28l7.12-41.89c1.13-6.67,3.66-12.07,7.59-16.2,3.93-4.13,9.06-6.87,15.4-8.22l54.7-11.63c2.15-.46,4.09-.68,5.82-.68,3.45,0,6.09.91,7.9,2.72,2.72,2.72,3.51,7.42,2.38,14.08l-7.58,44.6c-.18,1.08-.2,1.93-.06,2.55s.4,1.09.77,1.4c.36.31.86.49,1.48.53.12,0,.25.01.38.01.52,0,1.09-.07,1.72-.2.78-.17,1.51-.41,2.19-.73.68-.32,1.27-.73,1.78-1.22.5-.5.94-1.11,1.32-1.84.37-.73.65-1.64.84-2.72l10.1-59.46c.74-4.33.44-8.1-.89-11.34-1.34-3.23-3.4-6.14-6.18-8.72-2.78-2.58-6.12-4.97-10.01-7.18-3.89-2.21-8.06-4.43-12.49-6.66-4.44-2.22-9-4.58-13.68-7.06-4.69-2.48-9.16-5.33-13.43-8.54-4.27-3.22-8.18-6.88-11.75-10.98-3.57-4.1-6.5-8.93-8.78-14.48-2.28-5.55-3.75-11.88-4.43-18.99-.68-7.1-.23-15.25,1.33-24.44l11.48-67.57c1.5-8.83,3.39-17.13,5.68-24.91,2.28-7.78,5.3-15.06,9.05-21.85,3.75-6.79,8.35-13.06,13.81-18.83,5.46-5.76,12.13-11.07,20.03-15.92,7.9-4.85,17.15-9.2,27.77-13.07,10.62-3.86,22.91-7.28,36.9-10.25,13.98-2.97,25.99-4.72,36.05-5.25,2.35-.12,4.62-.19,6.8-.19M558.18,0h0c-2.48,0-5.08.07-7.74.21-10.94.58-24.01,2.47-38.84,5.62-14.73,3.13-27.95,6.81-39.3,10.94-11.7,4.26-22.13,9.18-31.02,14.63-9.2,5.65-17.16,12-23.67,18.87-6.48,6.85-12.03,14.41-16.49,22.5-4.37,7.9-7.92,16.48-10.56,25.47-2.46,8.39-4.53,17.46-6.15,26.95l-11.48,67.57c-1.82,10.71-2.32,20.51-1.5,29.15.84,8.84,2.76,16.95,5.69,24.1,3.01,7.34,6.99,13.88,11.84,19.45,4.37,5.02,9.24,9.58,14.49,13.53,5.01,3.78,10.34,7.17,15.84,10.08,4.8,2.54,9.52,4.97,14.02,7.23,1.07.54,2.13,1.08,3.16,1.62l-53.02,11.27c-9.92,2.11-18.23,6.62-24.68,13.42-6.41,6.75-10.53,15.35-12.27,25.55l-7.12,41.89c-1.63,9.57-2.61,18.51-2.92,26.59-.36,9.24.55,17.72,2.72,25.19,2.48,8.59,6.8,15.97,12.83,21.92,6.09,6.03,14.2,10.37,24.09,12.89,6.7,1.71,14.19,2.54,22.87,2.54,2.48,0,5.09-.07,7.75-.21,10.94-.58,24.01-2.47,38.83-5.62,14.72-3.13,27.94-6.81,39.3-10.94,11.7-4.26,22.14-9.18,31.02-14.64,9.21-5.65,17.17-12,23.68-18.88,6.47-6.83,12.01-14.39,16.48-22.49,4.37-7.91,7.92-16.48,10.56-25.47,2.48-8.44,4.55-17.51,6.15-26.96l11.48-67.56c1.82-10.69,2.32-20.5,1.5-29.15-.84-8.83-2.75-16.94-5.69-24.1-3.02-7.34-7-13.88-11.83-19.45-4.38-5.03-9.25-9.58-14.49-13.53-5.02-3.78-10.34-7.17-15.84-10.08-4.67-2.47-9.38-4.9-14.01-7.23-1.08-.54-2.14-1.08-3.19-1.63l53.02-11.27c10.07-2.14,18.44-6.72,24.87-13.62,6.3-6.76,10.37-15.29,12.08-25.35l7.12-41.89c1.62-9.52,2.6-18.47,2.92-26.58.36-9.25-.55-17.73-2.72-25.2-2.49-8.59-6.81-15.97-12.83-21.92-6.11-6.04-14.22-10.38-24.09-12.9-6.71-1.71-14.2-2.54-22.89-2.54h0Z"/>
        </g>
        <path class="cls-2" d="M558.18,28.72c6.18,0,11.49.56,15.78,1.65,4.87,1.24,8.57,3.09,11.01,5.5,2.53,2.5,4.31,5.6,5.43,9.48,1.31,4.51,1.85,9.92,1.6,16.08-.27,6.88-1.12,14.58-2.54,22.89l-7.12,41.89c-.76,4.5-2.32,7.96-4.77,10.58-2.37,2.54-5.58,4.21-9.84,5.11l-54.7,11.63c-1.67.35-2.78.43-3.43.43-.04,0-.08,0-.12,0-.06-.79-.05-2.12.3-4.21l7.58-44.6c.41-2.42.41-4.57,0-6.57v-.04s-.02-.04-.02-.04c-.79-3.75-2.74-6.08-4.24-7.38l-.04-.03-.04-.03c-2.33-1.98-5.25-3.03-8.44-3.03h-.04s-.02,0-.02,0c-1.38,0-2.79.17-4.31.49-1.41.3-2.75.71-3.98,1.21-1.99.81-3.78,1.98-5.29,3.47-1.36,1.34-2.51,2.96-3.42,4.81-.84,1.71-1.45,3.65-1.81,5.75l-10.1,59.46c-1.08,6.33-.55,12.13,1.56,17.24,1.93,4.68,4.9,8.89,8.81,12.51,3.36,3.12,7.41,6.03,12.01,8.65,4.02,2.29,8.39,4.62,12.98,6.92,4.45,2.24,8.99,4.58,13.48,6.95,4.16,2.2,8.19,4.77,11.97,7.62,3.65,2.76,7.06,5.94,10.12,9.45,2.78,3.2,5.12,7.07,6.94,11.5,1.87,4.55,3.1,9.91,3.67,15.92.58,6.14.17,13.41-1.22,21.62l-11.48,67.57c-1.42,8.35-3.23,16.32-5.39,23.68-2.05,6.98-4.79,13.6-8.15,19.68-3.29,5.96-7.4,11.56-12.2,16.63-4.78,5.05-10.78,9.81-17.84,14.14-7.24,4.45-15.93,8.53-25.82,12.12-10.11,3.68-22.03,6.99-35.45,9.84-13.36,2.84-24.93,4.53-34.37,5.03-2.16.11-4.26.17-6.24.17-6.18,0-11.49-.56-15.78-1.65-4.87-1.24-8.57-3.09-11.01-5.5-2.53-2.5-4.3-5.59-5.43-9.48-1.31-4.51-1.85-9.92-1.6-16.08.27-6.84,1.12-14.54,2.54-22.89l7.12-41.89c.77-4.55,2.34-8.02,4.78-10.59,2.41-2.54,5.63-4.21,9.83-5.1l54.7-11.63c1.73-.37,2.89-.45,3.57-.45.05.82.02,2.18-.33,4.23l-7.58,44.59c-.43,2.53-.41,4.76.07,6.82.67,2.86,2.15,5.33,4.26,7.13,2.13,1.82,4.81,2.89,7.73,3.08.37.03.74.04,1.12.04,1.27,0,2.6-.15,3.96-.44,1.58-.34,3.1-.84,4.52-1.51,1.78-.83,3.38-1.94,4.76-3.29l.02-.02.02-.02c1.3-1.29,2.41-2.82,3.31-4.57.87-1.7,1.5-3.66,1.87-5.82l10.1-59.46c1.08-6.33.56-12.13-1.56-17.26-1.93-4.66-4.89-8.87-8.82-12.51-3.37-3.12-7.41-6.03-12.01-8.65-3.99-2.27-8.35-4.59-12.98-6.92-4.32-2.16-8.85-4.5-13.47-6.95-4.15-2.19-8.17-4.75-11.98-7.62-3.65-2.75-7.05-5.93-10.12-9.45-2.78-3.19-5.12-7.06-6.94-11.5-1.86-4.53-3.1-9.89-3.67-15.92-.58-6.13-.17-13.4,1.22-21.62l11.48-67.56c1.43-8.39,3.24-16.36,5.4-23.69,2.05-6.98,4.79-13.6,8.15-19.68,3.28-5.95,7.39-11.55,12.2-16.62,4.78-5.05,10.79-9.81,17.84-14.14,7.25-4.45,15.93-8.53,25.82-12.12,10.1-3.68,22.03-6.99,35.45-9.84,13.36-2.84,24.93-4.53,34.37-5.03,2.16-.11,4.25-.17,6.23-.17M558.18,17.95c-2.18,0-4.44.06-6.8.19-10.05.53-22.07,2.28-36.05,5.25-13.98,2.97-26.28,6.39-36.9,10.25-10.62,3.86-19.87,8.22-27.77,13.07-7.9,4.85-14.57,10.15-20.03,15.92-5.46,5.76-10.06,12.04-13.81,18.83-3.75,6.79-6.77,14.07-9.05,21.85-2.28,7.78-4.18,16.08-5.68,24.91l-11.48,67.57c-1.56,9.19-2.01,17.34-1.33,24.44.67,7.11,2.15,13.44,4.43,18.99,2.28,5.55,5.2,10.38,8.78,14.48,3.57,4.1,7.49,7.77,11.75,10.98,4.27,3.22,8.74,6.07,13.43,8.54,4.68,2.48,9.24,4.83,13.68,7.06,4.43,2.23,8.6,4.45,12.49,6.66,3.89,2.21,7.23,4.61,10.01,7.18,2.78,2.58,4.84,5.48,6.18,8.72,1.33,3.23,1.63,7.01.89,11.34l-10.1,59.46c-.18,1.08-.46,1.98-.84,2.72-.38.73-.82,1.35-1.32,1.84-.51.5-1.1.91-1.78,1.22-.68.32-1.41.56-2.19.73-.63.13-1.2.2-1.72.2-.13,0-.26,0-.38-.01-.62-.04-1.11-.22-1.48-.53-.37-.31-.62-.78-.77-1.4s-.13-1.47.06-2.55l7.58-44.6c1.13-6.67.34-11.36-2.38-14.08-1.81-1.81-4.44-2.72-7.9-2.72-1.73,0-3.67.23-5.82.68l-54.7,11.63c-6.34,1.35-11.47,4.09-15.4,8.22-3.93,4.14-6.45,9.53-7.59,16.2l-7.12,41.89c-1.5,8.83-2.4,16.92-2.68,24.28-.29,7.36.39,13.85,2.02,19.5,1.63,5.65,4.37,10.36,8.2,14.15,3.83,3.79,9.14,6.55,15.92,8.28,5.19,1.32,11.33,1.98,18.44,1.98,2.18,0,4.44-.06,6.8-.19,10.05-.53,22.06-2.28,36.05-5.25,13.98-2.97,26.28-6.39,36.9-10.25,10.61-3.86,19.87-8.22,27.77-13.07,7.9-4.85,14.57-10.15,20.03-15.92,5.46-5.76,10.06-12.03,13.81-18.82,3.75-6.79,6.77-14.07,9.05-21.85,2.28-7.78,4.18-16.08,5.68-24.91l11.48-67.57c1.56-9.19,2-17.34,1.33-24.44-.67-7.11-2.15-13.43-4.43-18.99-2.28-5.55-5.2-10.38-8.77-14.48-3.57-4.1-7.49-7.76-11.76-10.98-4.27-3.22-8.74-6.06-13.42-8.54-4.68-2.48-9.25-4.83-13.68-7.06-4.44-2.23-8.6-4.45-12.49-6.66-3.89-2.21-7.23-4.6-10.01-7.18-2.79-2.58-4.85-5.48-6.18-8.72-1.33-3.23-1.63-7.01-.9-11.34l10.1-59.46c.18-1.08.47-2.01.85-2.79.38-.78.82-1.41,1.33-1.91.5-.5,1.09-.88,1.77-1.16.67-.27,1.4-.49,2.18-.66.78-.17,1.49-.25,2.12-.25,0,0,.01,0,.02,0,.62,0,1.11.16,1.47.46.36.31.62.8.76,1.47.14.67.11,1.54-.07,2.62l-7.58,44.59c-1.12,6.58-.3,11.24,2.45,14,1.85,1.85,4.51,2.78,7.97,2.78,1.69,0,3.58-.22,5.66-.66l54.7-11.63c6.42-1.37,11.58-4.13,15.47-8.3,3.89-4.17,6.39-9.54,7.51-16.12l7.12-41.89c1.5-8.83,2.39-16.92,2.68-24.28s-.39-13.85-2.02-19.5c-1.64-5.65-4.37-10.36-8.21-14.15-3.83-3.79-9.14-6.55-15.92-8.27-5.19-1.32-11.34-1.98-18.45-1.98h0Z"/>
      </g>
      <g>
        <path d="M63.43,531.03c-2.86.61-5.45.66-7.75.15-2.3-.51-4.16-1.48-5.59-2.91-1.43-1.43-2.43-3.33-2.99-5.68-.56-2.35-.59-5.02-.09-7.99L111.65,134.33c.5-2.97,1.47-5.85,2.91-8.63,1.43-2.78,3.17-5.25,5.22-7.43,2.04-2.17,4.39-4.04,7.04-5.6,2.65-1.56,5.41-2.65,8.28-3.26l81.54-17.33c2.69-.57,5.11-.63,7.25-.17,2.14.46,3.93,1.33,5.39,2.63,1.45,1.3,2.5,2.98,3.16,5.06.65,2.08.83,4.49.53,7.25l-20.84,189.13c-.14,1.77-.02,3.07.34,3.9.36.83.84,1.19,1.45,1.06s1.25-.7,1.92-1.71c.67-1.01,1.21-2.43,1.6-4.25l44.44-194.27c.65-2.83,1.69-5.5,3.12-8.02,1.43-2.52,3.16-4.79,5.18-6.83,2.02-2.04,4.26-3.77,6.72-5.21,2.46-1.43,5.04-2.44,7.73-3.01l81.54-17.33c2.86-.61,5.45-.66,7.75-.15,2.3.51,4.16,1.48,5.59,2.91,1.43,1.43,2.43,3.33,2.99,5.68.56,2.36.59,5.02.09,7.99l-64.63,380.27c-.5,2.97-1.48,5.85-2.91,8.63-1.44,2.78-3.17,5.26-5.22,7.43-2.04,2.17-4.39,4.04-7.04,5.6-2.65,1.56-5.41,2.65-8.28,3.26l-53.4,11.35c-2.95.63-5.58.69-7.88.18-2.3-.51-4.18-1.52-5.64-3.03-1.46-1.51-2.47-3.47-3.02-5.87-.56-2.4-.53-5.14.08-8.22l36.15-190.56c.23-1.35.21-2.32-.07-2.92-.28-.59-.63-.84-1.07-.75s-.93.52-1.47,1.29c-.55.77-1.03,1.85-1.43,3.24l-51.18,191.8c-1.43,5.43-4.17,10.16-8.25,14.19-4.08,4.04-8.72,6.61-13.93,7.72l-7.03,1.49c-5.21,1.11-9.3.39-12.25-2.15-2.96-2.54-4.24-6.41-3.86-11.62l12.65-183.74c.14-1.33.03-2.28-.33-2.86-.36-.57-.76-.81-1.19-.72s-.9.52-1.41,1.28c-.51.76-.87,1.81-1.1,3.17l-28.36,189.03c-.43,3.04-1.37,5.98-2.81,8.8-1.44,2.83-3.21,5.37-5.32,7.64-2.1,2.27-4.48,4.19-7.13,5.75-2.65,1.56-5.45,2.66-8.41,3.29l-53.4,11.35Z"/>
        <g>
          <path d="M341.87,81.35c1.16,0,2.27.12,3.32.35,2.3.51,4.16,1.48,5.59,2.91,1.43,1.43,2.43,3.33,2.99,5.68.56,2.36.59,5.02.09,7.99l-64.63,380.27c-.5,2.97-1.48,5.85-2.91,8.63-1.44,2.78-3.17,5.26-5.22,7.43-2.04,2.17-4.39,4.04-7.04,5.6-2.65,1.56-5.41,2.65-8.28,3.26l-53.4,11.35c-1.63.35-3.16.52-4.59.52-1.16,0-2.26-.11-3.29-.34-2.3-.51-4.18-1.52-5.64-3.03-1.46-1.51-2.47-3.47-3.02-5.87-.56-2.4-.53-5.14.08-8.22l36.15-190.56c.23-1.35.21-2.32-.07-2.92-.24-.51-.54-.77-.9-.77-.06,0-.11,0-.17.02-.44.09-.93.52-1.47,1.29-.55.77-1.03,1.85-1.43,3.24l-51.18,191.8c-1.43,5.43-4.17,10.16-8.25,14.19-4.08,4.04-8.72,6.61-13.93,7.72l-7.03,1.49c-1.58.34-3.06.5-4.43.5-3.15,0-5.76-.88-7.82-2.66-2.96-2.54-4.24-6.41-3.86-11.62l12.65-183.74c.14-1.33.03-2.28-.33-2.86-.31-.49-.65-.74-1.02-.74-.06,0-.12,0-.18.02-.43.09-.9.52-1.41,1.28-.51.76-.87,1.81-1.1,3.17l-28.36,189.03c-.43,3.04-1.37,5.98-2.81,8.8-1.44,2.83-3.21,5.37-5.32,7.64-2.1,2.27-4.48,4.19-7.13,5.75-2.65,1.56-5.45,2.66-8.41,3.29l-53.4,11.35c-1.56.33-3.03.5-4.43.5-1.17,0-2.27-.12-3.32-.35-2.3-.51-4.16-1.48-5.59-2.91-1.43-1.43-2.43-3.33-2.99-5.68-.56-2.35-.59-5.02-.09-7.99L82.93,155.87c.5-2.97,1.47-5.85,2.91-8.63,1.43-2.78,3.17-5.25,5.22-7.43,2.04-2.17,4.39-4.04,7.04-5.6,2.65-1.56,5.41-2.65,8.28-3.26l81.54-17.33c1.5-.32,2.91-.48,4.24-.48,1.06,0,2.06.1,3.01.3,2.14.46,3.93,1.33,5.39,2.63,1.45,1.3,2.5,2.98,3.16,5.06.65,2.08.83,4.49.53,7.25l-20.84,189.13c-.14,1.77-.02,3.07.34,3.9.31.72.72,1.08,1.22,1.08.08,0,.16,0,.24-.03.61-.13,1.25-.7,1.92-1.71.67-1.01,1.21-2.43,1.6-4.25l44.44-194.27c.65-2.83,1.69-5.5,3.12-8.02,1.43-2.52,3.16-4.79,5.18-6.83,2.02-2.04,4.26-3.77,6.72-5.21,2.46-1.43,5.04-2.44,7.73-3.01l81.54-17.33c1.56-.33,3.04-.5,4.43-.5M341.87,63.4c-2.64,0-5.38.3-8.16.89l-81.54,17.33c-4.55.97-8.94,2.67-13.04,5.06-3.81,2.22-7.32,4.94-10.43,8.07-3.12,3.15-5.82,6.71-8.03,10.59-.86,1.51-1.63,3.06-2.32,4.64-1.54-2.75-3.49-5.18-5.84-7.29-3.83-3.41-8.39-5.69-13.59-6.8-2.2-.47-4.47-.7-6.77-.7-2.57,0-5.25.29-7.97.87l-81.54,17.33c-4.74,1.01-9.34,2.81-13.65,5.34-4.11,2.42-7.81,5.37-11.01,8.77-3.18,3.38-5.91,7.25-8.1,11.5-2.27,4.4-3.84,9.07-4.65,13.86L.61,533.13c-.91,5.37-.8,10.47.32,15.17,1.33,5.61,3.95,10.4,7.77,14.21,3.86,3.87,8.72,6.49,14.42,7.74,2.28.51,4.71.77,7.18.77,2.64,0,5.38-.3,8.16-.89l53.4-11.35c4.84-1.03,9.48-2.84,13.79-5.38,4.13-2.43,7.89-5.46,11.18-9.01,2.67-2.88,5-6.07,6.96-9.5,5.29,4.53,12.02,6.93,19.44,6.93,2.62,0,5.37-.3,8.17-.9l7.03-1.49c8.61-1.83,16.29-6.04,22.83-12.52,1.24-1.23,2.41-2.5,3.49-3.82.39.46.79.9,1.21,1.33,3.89,4.04,8.97,6.84,14.69,8.11,2.27.51,4.69.77,7.16.77,2.67,0,5.47-.31,8.32-.91l53.4-11.35c4.76-1.01,9.35-2.81,13.66-5.35,4.09-2.4,7.79-5.36,11-8.76,3.17-3.37,5.89-7.23,8.09-11.49,2.28-4.42,3.85-9.09,4.66-13.87l64.63-380.25c.91-5.34.8-10.44-.32-15.15-1.34-5.62-3.94-10.39-7.73-14.19l-.02-.02-.02-.02c-3.88-3.88-8.72-6.48-14.39-7.73-2.32-.51-4.74-.77-7.2-.77h0Z"/>
          <path d="M356.23,70.58c1.16,0,2.27.12,3.32.35,2.3.51,4.16,1.48,5.59,2.91,1.43,1.43,2.43,3.33,2.99,5.68.56,2.36.59,5.02.09,7.99l-64.63,380.27c-.5,2.97-1.48,5.85-2.91,8.63-1.44,2.78-3.17,5.26-5.22,7.43-2.04,2.17-4.39,4.04-7.04,5.6-2.65,1.56-5.41,2.65-8.28,3.26l-53.4,11.35c-1.63.35-3.16.52-4.59.52-1.16,0-2.26-.11-3.29-.34-2.3-.51-4.18-1.52-5.64-3.03-1.46-1.51-2.47-3.47-3.02-5.87-.56-2.4-.53-5.14.08-8.22l36.15-190.56c.23-1.35.21-2.32-.07-2.92-.24-.51-.54-.77-.9-.77-.06,0-.11,0-.17.02-.44.09-.93.52-1.47,1.29-.55.77-1.03,1.85-1.43,3.24l-51.18,191.8c-1.43,5.43-4.17,10.16-8.25,14.19-4.08,4.04-8.72,6.61-13.93,7.72l-7.03,1.49c-1.58.34-3.06.5-4.43.5-3.15,0-5.76-.88-7.82-2.66-2.96-2.54-4.24-6.41-3.86-11.62l12.65-183.74c.14-1.33.03-2.28-.33-2.86-.31-.49-.65-.74-1.02-.74-.06,0-.12,0-.18.02-.43.09-.9.52-1.41,1.28-.51.76-.87,1.81-1.1,3.17l-28.36,189.03c-.43,3.04-1.37,5.98-2.81,8.8-1.44,2.83-3.21,5.37-5.32,7.64-2.1,2.27-4.48,4.19-7.13,5.75-2.65,1.56-5.45,2.66-8.41,3.29l-53.4,11.35c-1.56.33-3.03.5-4.43.5-1.17,0-2.27-.12-3.32-.35-2.3-.51-4.16-1.48-5.59-2.91-1.43-1.43-2.43-3.33-2.99-5.68-.56-2.35-.59-5.02-.09-7.99L97.29,145.1c.5-2.97,1.47-5.85,2.91-8.63,1.43-2.78,3.17-5.25,5.22-7.43,2.04-2.17,4.39-4.04,7.04-5.6,2.65-1.56,5.41-2.65,8.28-3.26l81.54-17.33c1.5-.32,2.91-.48,4.24-.48,1.06,0,2.06.1,3.01.3,2.14.46,3.93,1.33,5.39,2.63,1.45,1.3,2.5,2.98,3.16,5.06.65,2.08.83,4.49.53,7.25l-20.84,189.13c-.14,1.77-.02,3.07.34,3.9.31.72.72,1.08,1.22,1.08.08,0,.16,0,.24-.03.61-.13,1.25-.7,1.92-1.71.67-1.01,1.21-2.43,1.6-4.25l44.44-194.27c.65-2.83,1.69-5.5,3.12-8.02,1.43-2.52,3.16-4.79,5.18-6.83,2.02-2.04,4.26-3.77,6.72-5.21,2.46-1.43,5.04-2.44,7.73-3.01l81.54-17.33c1.56-.33,3.04-.5,4.43-.5M356.23,52.63c-2.64,0-5.38.3-8.16.89l-81.54,17.33c-4.55.97-8.94,2.67-13.04,5.06-3.81,2.22-7.32,4.94-10.43,8.07-3.12,3.15-5.82,6.71-8.03,10.59-.86,1.51-1.63,3.06-2.32,4.64-1.54-2.75-3.49-5.18-5.84-7.29-3.83-3.41-8.39-5.69-13.59-6.8-2.2-.47-4.47-.7-6.77-.7-2.57,0-5.25.29-7.97.87l-81.54,17.33c-4.74,1.01-9.34,2.81-13.65,5.34-4.11,2.42-7.81,5.37-11.01,8.77-3.18,3.38-5.91,7.25-8.1,11.5-2.27,4.4-3.84,9.07-4.65,13.86L14.97,522.36c-.91,5.37-.8,10.47.32,15.17,1.33,5.61,3.95,10.4,7.77,14.21,3.86,3.87,8.72,6.49,14.42,7.74,2.28.51,4.71.77,7.18.77,2.64,0,5.38-.3,8.16-.89l53.4-11.35c4.84-1.03,9.48-2.84,13.79-5.38,4.13-2.43,7.89-5.46,11.18-9.01,2.67-2.88,5-6.07,6.96-9.5,5.29,4.53,12.02,6.93,19.44,6.93,2.62,0,5.37-.3,8.17-.9l7.03-1.49c8.61-1.83,16.29-6.04,22.83-12.52,1.24-1.23,2.41-2.5,3.49-3.82.39.46.79.9,1.21,1.33,3.89,4.04,8.97,6.84,14.69,8.11,2.27.51,4.69.77,7.16.77,2.67,0,5.47-.31,8.32-.91l53.4-11.35c4.76-1.01,9.35-2.81,13.66-5.35,4.09-2.4,7.79-5.36,11-8.76,3.17-3.37,5.89-7.23,8.09-11.49,2.28-4.42,3.85-9.09,4.66-13.87l64.63-380.25c.91-5.34.8-10.44-.32-15.15-1.34-5.62-3.94-10.39-7.73-14.19l-.02-.02-.02-.02c-3.88-3.88-8.72-6.48-14.39-7.73-2.32-.51-4.74-.77-7.2-.77h0Z"/>
          <path d="M370.59,59.81c1.16,0,2.27.12,3.32.35,2.3.51,4.16,1.48,5.59,2.91,1.43,1.43,2.43,3.33,2.99,5.68.56,2.36.59,5.02.09,7.99l-64.63,380.27c-.5,2.97-1.48,5.85-2.91,8.63-1.44,2.78-3.17,5.26-5.22,7.43-2.04,2.17-4.39,4.04-7.04,5.6-2.65,1.56-5.41,2.65-8.28,3.26l-53.4,11.35c-1.63.35-3.16.52-4.59.52-1.16,0-2.26-.11-3.29-.34-2.3-.51-4.18-1.52-5.64-3.03-1.46-1.51-2.47-3.47-3.02-5.87-.56-2.4-.53-5.14.08-8.22l36.15-190.56c.23-1.35.21-2.32-.07-2.92-.24-.51-.54-.77-.9-.77-.06,0-.11,0-.17.02-.44.09-.93.52-1.47,1.29-.55.77-1.03,1.85-1.43,3.24l-51.18,191.8c-1.43,5.43-4.17,10.16-8.25,14.19-4.08,4.04-8.72,6.61-13.93,7.72l-7.03,1.49c-1.58.34-3.06.5-4.43.5-3.15,0-5.76-.88-7.82-2.66-2.96-2.54-4.24-6.41-3.86-11.62l12.65-183.74c.14-1.33.03-2.28-.33-2.86-.31-.49-.65-.74-1.02-.74-.06,0-.12,0-.18.02-.43.09-.9.52-1.41,1.28-.51.76-.87,1.81-1.1,3.17l-28.36,189.03c-.43,3.04-1.37,5.98-2.81,8.8-1.44,2.83-3.21,5.37-5.32,7.64-2.1,2.27-4.48,4.19-7.13,5.75-2.65,1.56-5.45,2.66-8.41,3.29l-53.4,11.35c-1.56.33-3.03.5-4.43.5-1.17,0-2.27-.12-3.32-.35-2.3-.51-4.16-1.48-5.59-2.91-1.43-1.43-2.43-3.33-2.99-5.68-.56-2.35-.59-5.02-.09-7.99L111.65,134.33c.5-2.97,1.47-5.85,2.91-8.63,1.43-2.78,3.17-5.25,5.22-7.43,2.04-2.17,4.39-4.04,7.04-5.6,2.65-1.56,5.41-2.65,8.28-3.26l81.54-17.33c1.5-.32,2.91-.48,4.24-.48,1.06,0,2.06.1,3.01.3,2.14.46,3.93,1.33,5.39,2.63,1.45,1.3,2.5,2.98,3.16,5.06.65,2.08.83,4.49.53,7.25l-20.84,189.13c-.14,1.77-.02,3.07.34,3.9.31.72.72,1.08,1.22,1.08.08,0,.16,0,.24-.03.61-.13,1.25-.7,1.92-1.71.67-1.01,1.21-2.43,1.6-4.25l44.44-194.27c.65-2.83,1.69-5.5,3.12-8.02,1.43-2.52,3.16-4.79,5.18-6.83,2.02-2.04,4.26-3.77,6.72-5.21,2.46-1.43,5.04-2.44,7.73-3.01l81.54-17.33c1.56-.33,3.04-.5,4.43-.5M370.59,41.86c-2.64,0-5.38.3-8.16.89l-81.54,17.33c-4.55.97-8.94,2.67-13.04,5.06-3.81,2.22-7.32,4.94-10.43,8.07-3.12,3.15-5.82,6.71-8.03,10.59-.86,1.51-1.63,3.06-2.32,4.64-1.54-2.75-3.49-5.18-5.84-7.29-3.83-3.41-8.39-5.69-13.59-6.8-2.2-.47-4.47-.7-6.77-.7-2.57,0-5.25.29-7.97.87l-81.54,17.33c-4.74,1.01-9.34,2.81-13.65,5.34-4.11,2.42-7.81,5.37-11.01,8.77-3.18,3.38-5.91,7.25-8.1,11.5-2.27,4.4-3.84,9.07-4.65,13.86L29.33,511.59c-.91,5.37-.8,10.47.32,15.17,1.33,5.61,3.95,10.4,7.77,14.21,3.86,3.87,8.72,6.49,14.42,7.74,2.28.51,4.71.77,7.18.77,2.64,0,5.38-.3,8.16-.89l53.4-11.35c4.84-1.03,9.48-2.84,13.79-5.38,4.13-2.43,7.89-5.46,11.18-9.01,2.67-2.88,5-6.07,6.96-9.5,5.29,4.53,12.02,6.93,19.44,6.93,2.62,0,5.37-.3,8.17-.9l7.03-1.49c8.61-1.83,16.29-6.04,22.83-12.52,1.24-1.23,2.41-2.5,3.49-3.82.39.46.79.9,1.21,1.33,3.89,4.04,8.97,6.84,14.69,8.11,2.27.51,4.69.77,7.16.77,2.67,0,5.47-.31,8.32-.91l53.4-11.35c4.76-1.01,9.35-2.81,13.66-5.35,4.09-2.4,7.79-5.36,11-8.76,3.17-3.37,5.89-7.23,8.09-11.49,2.28-4.42,3.85-9.09,4.66-13.87l64.63-380.25c.91-5.34.8-10.44-.32-15.15-1.34-5.62-3.94-10.39-7.73-14.19l-.02-.02-.02-.02c-3.88-3.88-8.72-6.48-14.39-7.73-2.32-.51-4.74-.77-7.2-.77h0Z"/>
        </g>
        <path class="cls-2" d="M370.59,70.58c.38,0,.71.03.99.09.12.03.21.05.29.08.04.11.1.27.15.5.15.64.27,1.8-.05,3.7l-64.63,380.27c-.32,1.88-.93,3.68-1.86,5.48-.97,1.88-2.14,3.56-3.49,4.99-1.34,1.42-2.9,2.66-4.67,3.7-1.66.98-3.3,1.63-5.04,2l-53.4,11.35c-.89.19-1.68.28-2.35.28-.37,0-.69-.03-.97-.09-.1-.02-.18-.05-.24-.06-.06-.11-.15-.35-.25-.76-.12-.5-.25-1.65.16-3.71v-.04s.02-.04.02-.04l36.15-190.56.02-.09.02-.1c.61-3.58.32-6.6-.9-9.25v-.03s-.02-.03-.02-.03c-2.01-4.3-6.09-6.97-10.65-6.97-.81,0-1.62.09-2.41.25-3.15.67-5.84,2.54-7.99,5.56-1.27,1.77-2.26,3.9-3.01,6.48l-.04.12-.03.12-51.19,191.84c-.94,3.56-2.71,6.6-5.41,9.28-2.6,2.58-5.41,4.16-8.59,4.83l-7.03,1.49c-.84.18-1.58.27-2.2.27-.39,0-.64-.04-.77-.07-.09-.25-.29-1.04-.16-2.7l12.64-183.57c.36-3.73-.28-6.83-1.96-9.51-2.28-3.61-6.06-5.76-10.12-5.76-.81,0-1.62.09-2.42.25-2.25.48-5.49,1.88-8.14,5.84-1.36,2.05-2.27,4.45-2.75,7.33l-.02.1-.02.1-28.36,189.03v.04s-.01.04-.01.04c-.27,1.88-.84,3.65-1.75,5.43-1,1.95-2.18,3.66-3.62,5.22-1.38,1.49-2.96,2.77-4.7,3.79-1.66.98-3.35,1.64-5.17,2.03l-53.4,11.35c-.82.17-1.55.26-2.19.26-.38,0-.7-.03-1.01-.1-.11-.02-.2-.05-.27-.07-.04-.11-.1-.28-.15-.51-.15-.63-.26-1.78.06-3.68L122.27,136.13c.32-1.89.93-3.68,1.86-5.49.98-1.9,2.12-3.53,3.49-4.98,1.34-1.42,2.91-2.67,4.66-3.7,1.66-.98,3.32-1.63,5.05-2l81.54-17.33c.76-.16,1.43-.24,2-.24.3,0,.56.02.75.06.21.04.35.09.43.13.02.06.06.14.1.26.09.29.28,1.15.1,2.85l-20.84,189.13-.02.18v.18c-.29,3.61.09,6.47,1.19,9.02,2.03,4.66,6.28,7.56,11.09,7.56.83,0,1.66-.09,2.48-.26,3.45-.73,6.36-2.84,8.65-6.28,1.43-2.15,2.46-4.73,3.15-7.88l44.43-194.2c.42-1.82,1.07-3.49,1.99-5.1.97-1.71,2.1-3.2,3.46-4.57,1.34-1.36,2.86-2.53,4.5-3.49,1.48-.86,2.96-1.44,4.55-1.78l81.54-17.33c.82-.17,1.55-.26,2.19-.26M370.59,59.81c-1.39,0-2.87.17-4.43.5l-81.54,17.33c-2.69.57-5.27,1.58-7.73,3.01-2.46,1.44-4.71,3.17-6.72,5.21-2.02,2.04-3.74,4.31-5.18,6.83-1.43,2.52-2.47,5.19-3.12,8.02l-44.44,194.27c-.39,1.82-.93,3.24-1.6,4.25-.67,1.01-1.32,1.58-1.92,1.71-.08.02-.16.03-.24.03-.5,0-.9-.36-1.22-1.08-.36-.83-.47-2.13-.34-3.9l20.84-189.13c.3-2.76.12-5.17-.53-7.25-.65-2.08-1.7-3.76-3.16-5.06-1.46-1.3-3.26-2.17-5.39-2.63-.95-.2-1.95-.3-3.01-.3-1.33,0-2.74.16-4.24.48l-81.54,17.33c-2.86.61-5.62,1.69-8.28,3.26-2.65,1.56-5,3.43-7.04,5.6-2.05,2.17-3.78,4.65-5.22,7.43-1.44,2.78-2.41,5.66-2.91,8.63l-64.63,380.27c-.5,2.97-.48,5.64.09,7.99.56,2.36,1.55,4.25,2.99,5.68,1.43,1.43,3.29,2.41,5.59,2.91,1.05.23,2.15.35,3.32.35,1.39,0,2.87-.17,4.43-.5l53.4-11.35c2.95-.63,5.75-1.72,8.41-3.29,2.65-1.56,5.02-3.48,7.13-5.75,2.1-2.27,3.87-4.82,5.32-7.64,1.44-2.82,2.38-5.76,2.81-8.8l28.36-189.03c.23-1.35.6-2.41,1.1-3.17.51-.76.98-1.18,1.41-1.28.06-.01.12-.02.18-.02.37,0,.7.25,1.02.74.36.58.47,1.53.33,2.86l-12.65,183.74c-.38,5.21.9,9.08,3.86,11.62,2.06,1.77,4.66,2.66,7.82,2.66,1.37,0,2.85-.17,4.43-.5l7.03-1.49c5.21-1.11,9.85-3.68,13.93-7.72,4.08-4.03,6.82-8.76,8.25-14.19l51.18-191.8c.41-1.39.88-2.47,1.43-3.24.55-.77,1.04-1.2,1.47-1.29.06-.01.12-.02.17-.02.36,0,.66.26.9.77.27.59.3,1.57.07,2.92l-36.15,190.56c-.61,3.08-.64,5.82-.08,8.22.55,2.4,1.56,4.36,3.02,5.87,1.46,1.51,3.34,2.53,5.64,3.03,1.03.23,2.13.34,3.29.34,1.43,0,2.96-.17,4.59-.52l53.4-11.35c2.86-.61,5.62-1.69,8.28-3.26,2.65-1.56,5-3.43,7.04-5.6,2.04-2.17,3.78-4.65,5.22-7.43,1.43-2.78,2.41-5.65,2.91-8.63l64.63-380.27c.51-2.97.47-5.64-.09-7.99-.56-2.36-1.56-4.25-2.99-5.68-1.43-1.43-3.29-2.4-5.59-2.91-1.05-.23-2.15-.35-3.32-.35h0Z"/>
      </g>
      <polygon class="cls-1" points="502.8 241.75 416.33 288.43 477.6 365.25 387.19 326.76 365.33 422.55 339.06 327.87 250.53 370.5 308.18 290.93 219.65 248.3 317.81 243.76 295.94 147.96 360.69 221.87 421.95 145.05 404.54 241.75 502.8 241.75"/>
    </g>
  </g>
</svg>